<svg width="20" height="20" viewBox="0 0 20 20" fill="none" xmlns="http://www.w3.org/2000/svg">
<path d="M6.04169 5.83335H13.9584V4.16669C13.9584 2.50002 13.3334 1.66669 11.4584 1.66669H8.54169C6.66669 1.66669 6.04169 2.50002 6.04169 4.16669V5.83335Z" stroke="#9A9EA6" stroke-width="1.2" stroke-miterlimit="10" stroke-linecap="round" stroke-linejoin="round"/>
<path d="M13.3334 12.5V15.8333C13.3334 17.5 12.5 18.3333 10.8334 18.3333H9.16669C7.50002 18.3333 6.66669 17.5 6.66669 15.8333V12.5H13.3334Z" stroke="#9A9EA6" stroke-width="1.2" stroke-miterlimit="10" stroke-linecap="round" stroke-linejoin="round"/>
<path d="M17.5 8.33331V12.5C17.5 14.1666 16.6667 15 15 15H13.3333V12.5H6.66667V15H5C3.33333 15 2.5 14.1666 2.5 12.5V8.33331C2.5 6.66665 3.33333 5.83331 5 5.83331H15C16.6667 5.83331 17.5 6.66665 17.5 8.33331Z" stroke="#9A9EA6" stroke-width="1.2" stroke-miterlimit="10" stroke-linecap="round" stroke-linejoin="round"/>
<path d="M14.1666 12.5H13.1583H5.83331" stroke="#9A9EA6" stroke-width="1.2" stroke-miterlimit="10" stroke-linecap="round" stroke-linejoin="round"/>
<path d="M5.83331 9.16669H8.33331" stroke="#9A9EA6" stroke-width="1.2" stroke-miterlimit="10" stroke-linecap="round" stroke-linejoin="round"/>
</svg>
