<svg width="44" height="26" viewBox="0 0 44 26" fill="none" xmlns="http://www.w3.org/2000/svg">
<path d="M19.7917 0.950694C13.3596 1.26882 7.43528 3.03564 3.76122 5.73725C2.02873 7.01465 0.724394 8.78147 0.326122 10.3868C0.17677 10.9986 0.206641 12.1536 0.375906 12.6479C1.45124 15.6579 7.51493 19.9061 17.2527 24.4675C19.254 25.4023 19.7021 25.5883 20.3293 25.7449C21.0363 25.9162 21.1259 25.926 22.0319 25.926C22.938 25.926 23.0276 25.9162 23.7346 25.7449C24.3618 25.5883 24.8099 25.4023 26.8112 24.4675C33.1338 21.5065 38.2217 18.4867 41.0295 16.0151C42.4135 14.7916 43.2399 13.7589 43.6482 12.7311C43.8672 12.1781 43.907 11.0769 43.7378 10.3868C43.3694 8.88425 42.2343 7.27404 40.681 6.03091C39.4763 5.07164 37.4949 3.97044 35.7126 3.26077C31.2719 1.50864 25.4969 0.666829 19.7917 0.950694ZM25.2181 1.74845C30.4853 2.17915 35.1849 3.5789 38.3312 5.65895C40.4321 7.04401 41.6867 8.54654 42.2044 10.2889C42.4434 11.1258 42.3637 12.3494 42.0053 13.0052C40.452 15.9026 34.8961 19.6369 25.6263 24.0074C24.3917 24.5849 23.396 25.0156 23.1371 25.0793C22.5397 25.2212 21.8726 25.2457 21.2553 25.1429C20.6579 25.0499 19.3237 24.4626 16.3665 23.009C10.0738 19.9207 5.95171 17.317 3.61187 14.9629C2.15817 13.5093 1.72007 12.6969 1.72007 11.488C1.72007 7.02444 8.14221 3.03564 17.1133 1.92465C17.87 1.83166 19.4631 1.69462 20.2895 1.65546C21.1259 1.61631 24.3121 1.67504 25.2181 1.74845Z" fill="#FFB60A"/>
<path d="M20.3392 3.63742C16.6253 3.84787 13.4292 4.57711 10.7409 5.83493C8.32138 6.97039 6.71833 8.38482 5.98153 10.0587C5.79235 10.4893 5.76248 10.7047 5.76248 11.6346C5.76248 12.5645 5.79235 12.7798 5.98153 13.2056C6.46941 14.302 7.43522 15.4032 8.65991 16.2596C9.62572 16.9302 11.4777 17.8209 12.8119 18.2614C16.486 19.4654 20.4388 19.8961 24.77 19.5584C25.3176 19.5143 25.9051 19.4507 26.0843 19.4164C26.6021 19.3088 26.6718 18.9662 26.2038 18.7949C25.9549 18.7019 25.935 18.7019 24.8098 18.8095C23.3263 18.9564 20.8669 18.9662 19.4431 18.834C16.3864 18.5452 13.718 17.8552 11.5275 16.7735C10.1236 16.0883 8.54043 14.948 8.84909 14.8501C8.90883 14.8305 10.0837 14.3558 11.4478 13.7978C13.0708 13.1371 13.9669 12.7407 14.0067 12.6624C14.1461 12.3981 13.5288 12.124 13.0409 12.2366C12.9214 12.2611 11.7664 12.7162 10.482 13.2399L8.14216 14.1943L8.00276 14.0426C7.78371 13.7881 7.41531 13.0197 7.28587 12.5547C7.10665 11.894 7.22613 10.6802 7.52484 10.044C8.78935 7.42555 12.6227 5.40424 17.7803 4.64074C19.3037 4.4156 20.2695 4.34708 22.0319 4.34708C23.9635 4.34708 25.0189 4.43028 26.7215 4.70926C28.7328 5.03717 30.525 5.55106 32.0086 6.22157C32.9047 6.63269 33.2432 6.69142 33.6216 6.50544C34.0896 6.27541 33.99 6.13837 33.0541 5.70278C29.7783 4.18068 24.8696 3.38292 20.3392 3.63742Z" fill="#FFB60A"/>
<path d="M25.6163 6.99503C24.9691 7.11249 24.1029 7.54808 23.8739 7.88578C23.4756 8.47798 23.8839 9.1436 24.8696 9.51556C26.383 10.0833 28.4839 9.83858 29.38 8.99188C29.7584 8.6297 29.7584 8.1207 29.37 7.73406C29.0315 7.39636 28.3644 7.09291 27.7371 6.99014C27.1596 6.89225 26.2038 6.89715 25.6163 6.99503ZM27.4086 7.71938C28.3146 7.94941 28.4441 8.57097 27.6575 8.90868C27.0103 9.19254 25.9847 9.13381 25.4769 8.78632C25.1882 8.59055 25.1583 8.19901 25.4072 7.99835C25.8254 7.67533 26.7315 7.54808 27.4086 7.71938Z" fill="#FFB60A"/>
<path d="M34.5874 7.23472C34.3285 7.39623 34.3285 7.47943 34.5774 7.69478C35.0952 8.14015 35.7722 8.83024 36.0212 9.16305C36.5787 9.93144 36.7779 10.4845 36.8376 11.4731C36.8675 11.9821 36.8675 12.3932 36.8277 12.3932C36.7878 12.3932 35.8519 12.036 34.7467 11.6004C33.6415 11.1599 32.5761 10.7635 32.3869 10.7194C31.9488 10.6068 31.3514 10.6117 30.8436 10.7243C30.6246 10.7781 29.599 11.1599 28.5735 11.5857C27.2791 12.1094 26.6618 12.3345 26.5821 12.3051C26.5124 12.2807 25.1085 11.7325 23.4656 11.0816C21.8128 10.4355 20.3591 9.89229 20.2396 9.87271C19.7816 9.7993 19.0548 9.83356 18.6864 9.94123C17.9695 10.1517 15.082 11.3655 15.0223 11.4878C14.8829 11.7521 15.5002 12.0262 15.9881 11.9185C16.1076 11.8891 16.9041 11.5808 17.7504 11.2333C18.5968 10.8858 19.3634 10.5873 19.453 10.5726C19.5427 10.553 19.7219 10.5775 19.8613 10.6215C20.4388 10.8124 33.7809 16.0786 33.7809 16.1178C33.7809 16.1373 33.303 16.3967 32.7155 16.6904C31.5306 17.2826 30.5847 17.6448 29.3003 18.002C28.8323 18.1293 28.3743 18.2663 28.2847 18.3055C28.0358 18.4083 28.0557 18.6823 28.3046 18.8047C28.5834 18.9417 28.912 18.927 29.6289 18.7509C33.1934 17.8699 36.2402 16.1031 37.5545 14.165C38.1818 13.2399 38.3013 12.8239 38.3013 11.6346C38.3013 10.4502 38.1818 10.0342 37.5545 9.10432C37.1861 8.54637 36.1904 7.53816 35.7722 7.28856C35.374 7.05853 34.906 7.03406 34.5874 7.23472ZM34.1393 12.2954C36.1108 13.0686 36.509 13.2448 36.4891 13.3378C36.3696 13.7392 35.2346 15.0802 34.7566 15.3934C34.6372 15.4717 34.3285 15.3591 31.2618 14.1503C29.4098 13.421 27.9163 12.8141 27.9462 12.7995C28.3843 12.5792 31.4809 11.3655 31.6003 11.3655C31.69 11.3655 32.825 11.7864 34.1393 12.2954Z" fill="#FFB60A"/>
</svg>
