<svg width="50" height="26" viewBox="0 0 50 26" fill="none" xmlns="http://www.w3.org/2000/svg">
<path d="M27.5431 0.946659C27.3439 0.980936 27.035 1.06418 26.8657 1.12785C26.7063 1.19151 23.6678 3.33637 20.1212 5.89747L13.6756 10.5496L11.8525 10.5643L10.0294 10.574L10.0792 10.4173C10.1091 10.3292 10.2984 9.45265 10.4876 8.46836C10.6769 7.48408 10.8562 6.58794 10.8861 6.47531C10.9459 6.27453 10.9758 6.25984 11.6532 6.08355C12.3307 5.90726 13.287 5.50571 13.6855 5.22169L13.8848 5.07968L16.7639 5.22659C18.7165 5.31963 19.7426 5.35391 19.9219 5.32453C20.4798 5.23148 20.5197 4.81035 19.9817 4.69772C19.8522 4.66833 18.4376 4.58509 16.8237 4.50673C13.576 4.35493 13.3269 4.35983 12.8487 4.61937C12.6893 4.70261 12.3307 4.89359 12.0418 5.0454C11.7429 5.207 11.3145 5.3735 10.9658 5.45674C10.0792 5.66731 9.77035 5.79953 9.61095 6.02968C9.51133 6.15701 9.2822 7.11681 9.02318 8.4047L8.5948 10.574H8.12657H7.64838L7.69819 10.388C7.72807 10.29 8.04687 8.75728 8.39555 6.98459C8.75419 5.207 9.09291 3.71833 9.14272 3.66446C9.29216 3.52735 9.5711 3.47348 10.1091 3.47348C10.3681 3.47348 13.028 3.5959 16.0068 3.74281C20.8086 3.97787 21.4661 3.99745 21.7052 3.93869C22.1834 3.81627 22.1635 3.42941 21.6753 3.32657C21.5458 3.30209 19.7924 3.20415 17.7601 3.10621C15.7378 3.00827 13.1476 2.88585 12.0019 2.82708C10.8463 2.77322 9.74046 2.74384 9.50137 2.75853C8.5948 2.82708 7.81773 3.20905 7.63841 3.68405C7.57864 3.82606 7.29969 5.11885 7.01079 6.55856L6.49275 9.17842L5.2375 9.2078C4.16157 9.22739 3.91251 9.25187 3.50405 9.35471C2.65726 9.57018 2.17907 9.97662 2.1691 10.5006C2.15914 10.7356 2.13922 10.7503 1.69091 10.8923C1.44185 10.9707 1.08321 11.1323 0.903889 11.2498C0.236414 11.6808 0.266301 11.3037 0.296188 18.3651L0.326075 24.7507L0.56517 25.0053C0.854077 25.3285 1.67099 25.7056 2.31854 25.8329C2.80669 25.926 3.32473 25.926 23.8371 25.926H44.8576L45.3757 25.8084C45.9933 25.6713 46.7305 25.3041 47.0294 24.9809C47.2386 24.7605 47.2486 24.6821 47.2785 22.8752L47.3083 21.0045H47.677C48.5337 21.0045 49.2908 20.794 49.5499 20.4806C49.6595 20.3532 49.6893 19.8929 49.6893 18.2622C49.6893 16.3084 49.6794 16.1908 49.4901 16.0097C49.1912 15.7207 48.7728 15.5983 47.9758 15.5787L47.2984 15.5591V13.7864C47.2984 12.2978 47.2685 11.9697 47.139 11.7493C46.9597 11.4555 46.5412 11.1225 46.1527 10.9756C45.9236 10.8875 45.9037 10.8434 45.9037 10.5153C45.9037 10.0795 45.6048 9.73177 45.027 9.49672C44.6086 9.33022 43.8713 9.2029 43.2935 9.2029H42.905L44.0706 8.36553C44.7181 7.90032 45.296 7.42531 45.3757 7.29799C45.6148 6.90624 45.3557 6.44103 44.7381 6.1619C44.5886 6.09335 43.2736 5.63793 41.8191 5.15313C40.3646 4.66833 37.0272 3.54693 34.3972 2.66549C31.7671 1.78403 29.4858 1.02991 29.3264 0.99073C28.9179 0.887896 28.0014 0.863411 27.5431 0.946659ZM28.7784 1.66651C29.3861 1.82321 43.5027 6.58794 43.7418 6.71036C44.1802 6.94052 44.1104 7.05804 43.1441 7.7632C42.6559 8.11089 41.5999 8.8846 40.7731 9.48203L39.2787 10.5692L38.7009 10.574H38.1331L39.2986 9.73667C39.9362 9.27146 40.514 8.81115 40.5937 8.70341C40.7432 8.48305 40.6834 8.31656 40.265 7.83176C40.0359 7.56243 39.986 7.43511 39.9661 6.98459C39.9462 6.54876 39.8964 6.42634 39.727 6.29412C39.5876 6.17659 38.3522 5.73587 35.4831 4.77607C33.2615 4.03173 31.3388 3.40003 31.1993 3.37554C30.7609 3.29229 30.3027 3.32168 29.4957 3.48327C28.8183 3.62039 28.5892 3.63998 27.6527 3.64977C26.3975 3.66446 26.0388 3.72812 25.6104 4.02683C25.4411 4.13947 23.3689 5.63303 20.9979 7.34207C18.6268 9.0511 16.6344 10.481 16.5746 10.5153C16.4949 10.5545 16.2658 10.574 15.937 10.5643L15.4389 10.5496L21.506 6.1668C24.8433 3.7575 27.6726 1.74486 27.7822 1.69589C28.0213 1.60285 28.4796 1.58816 28.7784 1.66651ZM34.6961 5.3735L38.4817 6.6418L38.5415 7.17557C38.5913 7.59181 38.6611 7.78279 38.8703 8.05212C39.0197 8.23821 39.1492 8.42919 39.1592 8.46836C39.1691 8.51244 38.5515 9.00213 37.7844 9.56038L36.3897 10.5692L35.1444 10.574H33.8891L33.7795 10.246C33.6201 9.79543 32.9726 9.17842 32.2951 8.81605C31.5779 8.43408 30.8108 8.18924 29.7846 8.01295C27.7025 7.66037 25.2119 7.94929 23.6777 8.723C22.821 9.15393 22.1734 9.76605 22.014 10.2949L21.9443 10.5496L20.1212 10.5643C18.6567 10.574 18.3081 10.5643 18.3678 10.5153C18.4176 10.481 20.3503 9.08048 22.6715 7.40083L26.8956 4.35493H27.832C28.5493 4.35493 28.9378 4.32555 29.5356 4.23251C29.964 4.16395 30.3824 4.0905 30.4521 4.06601C30.5418 4.03663 30.6713 4.03663 30.751 4.06111C30.8406 4.0856 32.6139 4.67323 34.6961 5.3735ZM29.0175 8.63976C29.8245 8.74749 30.492 8.93357 31.0997 9.23229C31.7273 9.54079 32.1059 9.86889 32.2951 10.2704L32.4346 10.574H27.9117H23.3789L23.4486 10.388C23.9069 9.14904 26.527 8.32146 29.0175 8.63976ZM6.31343 10.0893C6.28354 10.1725 6.25365 10.3194 6.25365 10.4076V10.574H4.95855H3.66345V10.3978C3.66345 10.2704 3.74315 10.1872 3.95236 10.0795C4.24126 9.94234 4.27115 9.93745 5.30723 9.93745H6.38316L6.31343 10.0893ZM44.0407 10.0403C44.3296 10.148 44.5986 10.5055 44.4492 10.5643C44.3994 10.5838 43.6123 10.5936 42.6958 10.5838L41.0321 10.5692L41.4505 10.2557L41.8689 9.93745H42.8253C43.6422 9.93745 43.8215 9.95214 44.0407 10.0403ZM45.0768 11.4849C45.7044 11.7297 45.804 11.8815 45.804 12.5671V13.1694H23.7873H1.77061V12.5573C1.77061 12.1215 1.81046 11.9011 1.91008 11.8081C2.0894 11.6367 2.54767 11.4261 2.86646 11.3625C3.02586 11.3331 10.2485 11.3184 23.9069 11.3233L44.6883 11.3331L45.0768 11.4849ZM45.804 14.7364V15.5689H42.0482C39.0396 15.5689 38.153 15.5836 37.6449 15.6424C35.9015 15.8481 34.4072 16.5042 33.7496 17.3563C33.4707 17.7236 33.3711 18.4728 33.5504 18.8548C33.9987 19.8048 35.4731 20.5785 37.4357 20.887C37.9039 20.9605 38.5216 20.9752 41.8988 20.9947L45.804 21.0143V21.8419V22.6695H27.8918C10.0593 22.6695 9.96959 22.6695 9.79027 22.7674C9.56114 22.8948 9.56114 23.1298 9.79027 23.2571C9.96959 23.3551 10.0593 23.3551 27.8918 23.3551H45.804V23.977C45.804 24.5352 45.7742 24.6234 45.5749 24.7997C45.4454 24.9074 45.1764 25.0396 44.9572 25.1033L44.5588 25.2159H23.8072C0.684719 25.2159 2.65726 25.2453 2.0894 24.8829C1.83038 24.7164 1.82042 24.6821 1.79053 24.0308L1.75069 23.3551H3.85273C5.82527 23.3551 5.96474 23.3502 6.15403 23.2571C6.26361 23.2033 6.35327 23.0955 6.35327 23.0123C6.35327 22.929 6.26361 22.8213 6.15403 22.7674C5.96474 22.6744 5.82527 22.6695 3.8627 22.6695H1.77061V18.2867V13.904H23.7873H45.804V14.7364ZM48.1751 18.272L48.195 20.27H43.3433C40.4941 20.27 38.3024 20.2455 38.0534 20.221C36.4893 20.0398 35.234 19.3885 34.9352 18.6001C34.5367 17.5277 36.1506 16.4504 38.3622 16.3084C38.7009 16.2839 41.0421 16.2692 43.5625 16.2741L48.1452 16.279L48.1751 18.272Z" fill="#4086F4"/>
</svg>
