<svg width="192" height="131" viewBox="0 0 192 131" fill="none" xmlns="http://www.w3.org/2000/svg">
<path d="M72.2546 54.9713C72.301 54.9366 72.3384 54.8926 72.3642 54.8423C72.3899 54.7921 72.4033 54.7371 72.4032 54.6813L71.9892 47.6813L75.5666 45.6213C75.8352 45.4684 76.0689 45.267 76.2545 45.0287C76.44 44.7903 76.5736 44.5197 76.6476 44.2325C76.7217 43.9452 76.7346 43.647 76.6857 43.3551C76.6368 43.0631 76.527 42.7831 76.3628 42.5313L75.0146 40.4413C74.6829 39.9318 74.1504 39.5667 73.5336 39.4262C72.9169 39.2856 72.2661 39.381 71.7238 39.6913L71.5328 39.8013L70.6942 25.4213L87.6788 17.1713C88.5678 16.6614 89.3408 15.9906 89.953 15.1976C90.5652 14.4046 91.0046 13.5052 91.2456 12.5513L91.3092 12.2813L93.6021 8.85132C93.9821 8.27486 94.1834 7.60983 94.1834 6.9313C94.1834 6.25278 93.9821 5.58775 93.6021 5.01129C93.2265 4.42912 92.6854 3.95762 92.0401 3.65012C91.3947 3.34261 90.6709 3.21139 89.9505 3.2713L85.7043 3.62131C84.6521 3.33863 83.549 3.26556 82.4652 3.40674C81.3813 3.54792 80.3406 3.90027 79.4094 4.44131L63.7623 14.8513L50.578 7.57129L50.7691 7.4613C51.31 7.14881 51.6975 6.64715 51.8467 6.06616C51.9959 5.48517 51.8947 4.87216 51.5652 4.3613L50.2171 2.2713C49.8834 1.76379 49.351 1.4005 48.7351 1.26013C48.1191 1.11976 47.4693 1.21359 46.9263 1.5213L43.3489 3.5813L36.9797 0.0413184C36.9258 0.014182 36.8657 -2.3602e-06 36.8046 -2.36271e-06C36.7435 -2.36523e-06 36.6833 0.014182 36.6294 0.0413184L30.5574 2.9913C30.4998 3.02136 30.4511 3.06461 30.4159 3.11703C30.3806 3.16946 30.3599 3.22936 30.3557 3.29129C30.34 3.35037 30.34 3.41223 30.3557 3.47131C30.3907 3.52123 30.4381 3.56241 30.4937 3.59131L33.6146 5.23129L35.8545 7.88131L34.2409 8.81131C34.2004 8.83482 34.1651 8.86566 34.1373 8.90207C34.1094 8.93847 34.0895 8.97971 34.0786 9.0234C34.0678 9.0671 34.0662 9.11238 34.074 9.15664C34.0818 9.20091 34.0989 9.24328 34.1241 9.28131L34.3046 9.56131L32.9034 10.3713C32.6677 10.5098 32.4991 10.7297 32.4336 10.9839C32.3681 11.2382 32.411 11.5065 32.5531 11.7313L34.5594 14.8313C34.7064 15.0533 34.9399 15.2121 35.2098 15.2738C35.4796 15.3355 35.7645 15.2951 36.0031 15.1613L37.4043 14.3513L37.5848 14.6313C37.6354 14.7082 37.7156 14.7635 37.8086 14.7859C37.9016 14.8083 38.0002 14.7959 38.0837 14.7513L40.4722 13.3713L49.6757 24.2813L35.9818 33.4613L27.0119 29.9413L23.1691 31.8013L29.188 38.1113L26.7252 40.8013L29.2411 44.6913L32.8397 43.7613L36.0243 51.6713L39.538 49.3113L40.3236 40.1813L55.5566 32.7613L61.342 45.6113L58.9429 46.9913C58.8621 47.0371 58.8035 47.1109 58.7797 47.1968C58.7559 47.2828 58.7688 47.3741 58.8155 47.4513L59.0066 47.7413L57.5948 48.5513C57.3638 48.6912 57.1993 48.91 57.136 49.1618C57.0726 49.4135 57.1153 49.6786 57.2551 49.9013L59.2614 53.0013C59.4083 53.2206 59.6398 53.3776 59.9071 53.4391C60.1745 53.5007 60.4568 53.462 60.6944 53.3313L62.1063 52.5313L62.2868 52.8113C62.3117 52.8495 62.3445 52.8827 62.3831 52.9089C62.4218 52.9352 62.4655 52.9539 62.5119 52.9642C62.5583 52.9744 62.6064 52.9759 62.6533 52.9685C62.7003 52.9612 62.7453 52.9451 62.7857 52.9213L64.3992 52.0013L65.8748 55.0813L65.9915 58.4513C65.9979 58.5106 66.0159 58.5682 66.0446 58.6213C66.0834 58.6744 66.1342 58.7188 66.1932 58.7513C66.2501 58.7811 66.314 58.7967 66.379 58.7967C66.444 58.7967 66.508 58.7811 66.5648 58.7513L72.2546 54.9713ZM44.1345 3.97131L47.3191 2.1113C47.6979 1.89306 48.1531 1.82525 48.5849 1.92273C49.0168 2.02021 49.3899 2.27504 49.6226 2.63132L50.9814 4.72131C51.2093 5.08005 51.278 5.5089 51.1727 5.91504C51.0674 6.32118 50.7966 6.67191 50.4188 6.89129L49.8986 7.19131L46.99 5.5813L44.1345 3.97131ZM35.7165 14.5813C35.6429 14.6225 35.5553 14.6351 35.472 14.6164C35.3888 14.5978 35.3166 14.5493 35.2706 14.4813L33.2643 11.3713C33.2412 11.3374 33.2257 11.2994 33.2185 11.2597C33.2114 11.2199 33.2128 11.1793 33.2227 11.1401C33.2326 11.1009 33.2508 11.064 33.2762 11.0315C33.3016 10.9991 33.3336 10.9718 33.3705 10.9513L34.7717 10.1413L37.1283 13.7713L35.7165 14.5813ZM38.1155 13.9913L35.0159 9.2113L36.3959 8.42129L40.1219 12.8413L38.1155 13.9913ZM40.9392 12.7213L36.7674 7.72131L34.2409 4.72131C34.2108 4.68625 34.1749 4.65588 34.1348 4.63131L31.534 3.2713L36.8417 0.691282L46.3956 5.95129L49.8031 7.84131L63.2209 15.2513L50.3339 23.8113L40.9392 12.7213ZM72.0954 40.2913C72.4742 40.0731 72.9294 40.0053 73.3612 40.1028C73.7931 40.2002 74.1662 40.455 74.3989 40.8113L75.7471 42.9013C75.9787 43.2582 76.0507 43.687 75.9473 44.0938C75.8438 44.5006 75.5733 44.8521 75.1951 45.0713L71.9468 46.9313L71.7663 43.7613L71.5752 40.5813L72.0954 40.2913ZM90.0248 3.95129C90.6123 3.89675 91.2042 4.00143 91.7307 4.25299C92.2573 4.50455 92.6966 4.89253 92.9971 5.37131C93.3112 5.83966 93.4779 6.38231 93.4779 6.93631C93.4779 7.49031 93.3112 8.03296 92.9971 8.50131L91.4791 10.7813L91.4791 10.6813C91.479 10.4202 91.4577 10.1594 91.4154 9.90131C91.4257 9.82495 91.4257 9.74765 91.4154 9.6713C91.3732 9.37747 91.3093 9.08677 91.2243 8.8013L91.2243 8.72131C91.1394 8.45671 91.0402 8.19637 90.9271 7.94131L90.8209 7.73129C90.6936 7.45136 90.5446 7.18063 90.3751 6.9213C90.2052 6.66129 90.0141 6.41129 89.8231 6.17129L89.6638 5.9913C89.4732 5.77845 89.2713 5.57486 89.0588 5.38132L89.0057 5.3313C88.7701 5.13077 88.522 4.94377 88.2626 4.7713L88.0715 4.6413C87.8396 4.49154 87.5986 4.35464 87.3497 4.23129C87.3239 4.21109 87.2954 4.19428 87.2648 4.1813L90.0248 3.95129ZM85.5451 4.29129C87.2756 4.76676 88.7533 5.83755 89.6851 7.29129C90.6221 8.74368 90.9478 10.474 90.598 12.1413L90.5343 12.4213C90.0881 14.17 88.9237 15.6805 87.2966 16.6213L70.1634 24.9613L55.6946 31.9613L33.2856 42.8813L32.3089 41.3713C34.9628 39.838 37.6166 38.3113 40.2705 36.7913C40.5015 36.6529 40.6669 36.4358 40.732 36.1853C40.7972 35.9348 40.757 35.6702 40.62 35.4469C40.483 35.2236 40.2597 35.0589 39.9967 34.987C39.7338 34.9151 39.4515 34.9418 39.2089 35.0613L31.2368 39.6313L30.292 38.1713L64.0065 15.5813L64.1232 15.5113L79.6854 5.00131C80.5486 4.50234 81.5137 4.18033 82.5179 4.05627C83.522 3.93222 84.5426 4.0089 85.5132 4.28131L85.5451 4.29129ZM24.4217 32.0013L27.1392 30.6813L35.2706 33.8713L29.8568 37.6213L29.8568 37.5413L29.8037 37.6013L24.4217 32.0013ZM29.6657 43.9013L27.7018 40.9013L29.7082 38.7113L30.568 40.0513C30.3245 40.1919 30.1502 40.4178 30.0835 40.6794C30.0168 40.941 30.0632 41.2169 30.2124 41.4463C30.3616 41.6757 30.6015 41.8399 30.8792 41.9027C31.1569 41.9655 31.4497 41.9219 31.6932 41.7813L32.5956 43.1713L29.6657 43.9013ZM38.9648 48.9013L36.4808 50.5713L33.6252 43.5713L33.7102 43.5713L33.7102 43.5013L39.7185 40.6813L38.9648 48.9013ZM60.4397 52.7213C60.3649 52.7616 60.2763 52.7727 60.1929 52.7521C60.1096 52.7315 60.0381 52.681 59.9939 52.6113L57.9769 49.5113C57.9541 49.476 57.939 49.4367 57.9325 49.3958C57.926 49.3549 57.9282 49.3132 57.9391 49.2731C57.95 49.2331 57.9693 49.1954 57.9958 49.1625C58.0224 49.1295 58.0556 49.1019 58.0937 49.0813L59.4949 48.2813L61.8516 51.9113L60.4397 52.7213ZM62.8281 52.1313L59.7391 47.3513L61.7454 46.1913L61.9789 46.6713L64.2188 51.3413L62.8281 52.1313ZM66.7134 54.9513L66.7134 54.8313L65.0468 51.3313L62.2762 45.5713L56.3315 32.4613L68.5605 26.4613L70.0042 25.7513L70.864 40.3913L71.0869 44.0513L71.692 54.5113L66.8302 57.7713L66.7134 54.9513Z" fill="#999999"/>
<path d="M169.916 95.9713C169.963 95.9366 170 95.8926 170.026 95.8423C170.051 95.7921 170.065 95.7371 170.065 95.6813L169.651 88.6813L173.228 86.6213C173.497 86.4684 173.73 86.267 173.916 86.0287C174.102 85.7903 174.235 85.5197 174.309 85.2325C174.383 84.9452 174.396 84.647 174.347 84.3551C174.298 84.0631 174.189 83.7831 174.024 83.5313L172.676 81.4413C172.344 80.9318 171.812 80.5667 171.195 80.4262C170.578 80.2856 169.928 80.381 169.385 80.6913L169.194 80.8013L168.356 66.4213L185.34 58.1713C186.229 57.6614 187.002 56.9906 187.615 56.1976C188.227 55.4046 188.666 54.5052 188.907 53.5513L188.971 53.2813L191.264 49.8513C191.644 49.2749 191.845 48.6098 191.845 47.9313C191.845 47.2528 191.644 46.5877 191.264 46.0113C190.888 45.4291 190.347 44.9576 189.702 44.6501C189.056 44.3426 188.332 44.2114 187.612 44.2713L183.366 44.6213C182.314 44.3386 181.211 44.2656 180.127 44.4067C179.043 44.5479 178.002 44.9003 177.071 45.4413L161.424 55.8513L148.24 48.5713L148.431 48.4613C148.972 48.1488 149.359 47.6472 149.508 47.0662C149.657 46.4852 149.556 45.8722 149.227 45.3613L147.879 43.2713C147.545 42.7638 147.013 42.4005 146.397 42.2601C145.781 42.1198 145.131 42.2136 144.588 42.5213L141.01 44.5813L134.641 41.0413C134.587 41.0142 134.527 41 134.466 41C134.405 41 134.345 41.0142 134.291 41.0413L128.219 43.9913C128.161 44.0214 128.113 44.0646 128.077 44.117C128.042 44.1695 128.021 44.2294 128.017 44.2913C128.002 44.3504 128.002 44.4122 128.017 44.4713C128.052 44.5212 128.1 44.5624 128.155 44.5913L131.276 46.2313L133.516 48.8813L131.902 49.8113C131.862 49.8348 131.827 49.8657 131.799 49.9021C131.771 49.9385 131.751 49.9797 131.74 50.0234C131.729 50.0671 131.728 50.1124 131.736 50.1566C131.743 50.2009 131.76 50.2433 131.786 50.2813L131.966 50.5613L130.565 51.3713C130.329 51.5098 130.161 51.7297 130.095 51.9839C130.03 52.2382 130.073 52.5065 130.215 52.7313L132.221 55.8313C132.368 56.0533 132.601 56.2121 132.871 56.2738C133.141 56.3355 133.426 56.2951 133.665 56.1613L135.066 55.3513L135.246 55.6313C135.297 55.7082 135.377 55.7635 135.47 55.7859C135.563 55.8083 135.662 55.7959 135.745 55.7513L138.134 54.3713L147.337 65.2813L133.643 74.4613L124.673 70.9413L120.831 72.8013L126.85 79.1113L124.387 81.8013L126.903 85.6913L130.501 84.7613L133.686 92.6713L137.2 90.3113L137.985 81.1813L153.218 73.7613L159.004 86.6113L156.604 87.9913C156.524 88.0371 156.465 88.1109 156.441 88.1968C156.417 88.2828 156.43 88.3741 156.477 88.4513L156.668 88.7413L155.256 89.5513C155.025 89.6912 154.861 89.91 154.798 90.1618C154.734 90.4135 154.777 90.6786 154.917 90.9013L156.923 94.0013C157.07 94.2206 157.301 94.3776 157.569 94.4391C157.836 94.5007 158.118 94.462 158.356 94.3313L159.768 93.5313L159.948 93.8113C159.973 93.8495 160.006 93.8827 160.045 93.9089C160.083 93.9352 160.127 93.9539 160.173 93.9642C160.22 93.9744 160.268 93.9759 160.315 93.9685C160.362 93.9612 160.407 93.9451 160.447 93.9213L162.061 93.0013L163.536 96.0813L163.653 99.4513C163.659 99.5106 163.677 99.5682 163.706 99.6213C163.745 99.6744 163.796 99.7188 163.855 99.7513C163.912 99.7811 163.976 99.7967 164.041 99.7967C164.106 99.7967 164.17 99.7811 164.226 99.7513L169.916 95.9713ZM141.796 44.9713L144.981 43.1113C145.359 42.8931 145.815 42.8252 146.247 42.9227C146.678 43.0202 147.051 43.275 147.284 43.6313L148.643 45.7213C148.871 46.0801 148.94 46.5089 148.834 46.915C148.729 47.3212 148.458 47.6719 148.08 47.8913L147.56 48.1913L144.652 46.5813L141.796 44.9713ZM133.378 55.5813C133.304 55.6225 133.217 55.6351 133.134 55.6164C133.05 55.5978 132.978 55.5493 132.932 55.4813L130.926 52.3713C130.903 52.3374 130.887 52.2994 130.88 52.2597C130.873 52.2199 130.874 52.1793 130.884 52.1401C130.894 52.1009 130.912 52.064 130.938 52.0315C130.963 51.9991 130.995 51.9718 131.032 51.9513L132.433 51.1413L134.79 54.7713L133.378 55.5813ZM135.777 54.9913L132.677 50.2113L134.057 49.4213L137.783 53.8413L135.777 54.9913ZM138.601 53.7213L134.429 48.7213L131.902 45.7213C131.872 45.6863 131.837 45.6559 131.796 45.6313L129.196 44.2713L134.503 41.6913L144.057 46.9513L147.465 48.8413L160.882 56.2513L147.995 64.8113L138.601 53.7213ZM169.757 81.2913C170.136 81.0731 170.591 81.0053 171.023 81.1028C171.455 81.2002 171.828 81.455 172.06 81.8113L173.409 83.9013C173.64 84.2582 173.712 84.687 173.609 85.0938C173.505 85.5006 173.235 85.8521 172.857 86.0713L169.608 87.9313L169.428 84.7613L169.237 81.5813L169.757 81.2913ZM187.686 44.9513C188.274 44.8968 188.866 45.0014 189.392 45.253C189.919 45.5045 190.358 45.8925 190.659 46.3713C190.973 46.8397 191.139 47.3823 191.139 47.9363C191.139 48.4903 190.973 49.033 190.659 49.5013L189.141 51.7813L189.141 51.6813C189.141 51.4202 189.119 51.1594 189.077 50.9013C189.087 50.8249 189.087 50.7477 189.077 50.6713C189.035 50.3775 188.971 50.0868 188.886 49.8013L188.886 49.7213C188.801 49.4567 188.702 49.1964 188.589 48.9413L188.482 48.7313C188.355 48.4514 188.206 48.1806 188.037 47.9213C187.867 47.6613 187.676 47.4113 187.485 47.1713L187.325 46.9913C187.135 46.7784 186.933 46.5749 186.72 46.3813L186.667 46.3313C186.432 46.1308 186.184 45.9438 185.924 45.7713L185.733 45.6413C185.501 45.4915 185.26 45.3546 185.011 45.2313C184.985 45.2111 184.957 45.1943 184.926 45.1813L187.686 44.9513ZM183.207 45.2913C184.937 45.7668 186.415 46.8375 187.347 48.2913C188.284 49.7437 188.609 51.474 188.26 53.1413L188.196 53.4213C187.75 55.17 186.585 56.6805 184.958 57.6213L167.825 65.9613L153.356 72.9613L130.947 83.8813L129.97 82.3713C132.624 80.838 135.278 79.3113 137.932 77.7913C138.163 77.6529 138.328 77.4358 138.394 77.1853C138.459 76.9348 138.419 76.6702 138.282 76.4469C138.145 76.2236 137.921 76.0589 137.658 75.987C137.395 75.9151 137.113 75.9418 136.87 76.0613L128.898 80.6313L127.954 79.1713L161.668 56.5813L161.785 56.5113L177.347 46.0013C178.21 45.5023 179.175 45.1803 180.179 45.0563C181.184 44.9322 182.204 45.0089 183.175 45.2813L183.207 45.2913ZM122.083 73.0013L124.801 71.6813L132.932 74.8713L127.518 78.6213L127.518 78.5413L127.465 78.6013L122.083 73.0013ZM127.327 84.9013L125.363 81.9013L127.37 79.7113L128.23 81.0513C127.986 81.1919 127.812 81.4178 127.745 81.6794C127.678 81.941 127.725 82.2169 127.874 82.4463C128.023 82.6757 128.263 82.8399 128.541 82.9027C128.818 82.9655 129.111 82.9219 129.355 82.7813L130.257 84.1713L127.327 84.9013ZM136.626 89.9013L134.142 91.5713L131.287 84.5713L131.372 84.5713L131.372 84.5013L137.38 81.6813L136.626 89.9013ZM158.101 93.7213C158.026 93.7616 157.938 93.7727 157.854 93.7521C157.771 93.7315 157.7 93.681 157.655 93.6113L155.638 90.5113C155.616 90.476 155.601 90.4367 155.594 90.3958C155.588 90.3549 155.59 90.3132 155.601 90.2731C155.612 90.2331 155.631 90.1954 155.657 90.1625C155.684 90.1295 155.717 90.1019 155.755 90.0813L157.156 89.2813L159.513 92.9113L158.101 93.7213ZM160.49 93.1313L157.401 88.3513L159.407 87.1913L159.64 87.6713L161.88 92.3413L160.49 93.1313ZM164.375 95.9513L164.375 95.8313L162.708 92.3313L159.938 86.5713L153.993 73.4613L166.222 67.4613L167.666 66.7513L168.526 81.3913L168.748 85.0513L169.354 95.5113L164.492 98.7713L164.375 95.9513Z" fill="#999999"/>
<path d="M11.5076 91.2901L11.2906 90.527C11.2787 90.4856 11.2759 90.4424 11.2822 90.3999C11.2884 90.3575 11.3037 90.3166 11.3271 90.2798C11.3504 90.243 11.3814 90.211 11.4182 90.1857C11.4549 90.1604 11.4967 90.1423 11.541 90.1325C11.585 90.1214 11.6308 90.1187 11.6759 90.1247C11.721 90.1306 11.7644 90.1449 11.8034 90.1669C11.8425 90.1889 11.8765 90.2181 11.9033 90.2527C11.9302 90.2874 11.9494 90.3267 11.9598 90.3685C12.1384 90.9963 12.3142 91.6145 12.4873 92.223C12.5137 92.3053 12.5051 92.394 12.4631 92.4703C12.4212 92.5466 12.3494 92.6045 12.2628 92.6317C12.1739 92.6543 12.0791 92.644 11.9979 92.6029C11.9168 92.5618 11.8554 92.493 11.8263 92.4106L11.5076 91.2901ZM10.8738 88.6755C10.6952 88.0477 10.6294 87.3914 10.5329 86.7428C10.5264 86.7008 10.5288 86.658 10.54 86.6169C10.5512 86.5758 10.571 86.5372 10.5981 86.5034C10.6253 86.4695 10.6594 86.4411 10.6984 86.4198C10.7373 86.3985 10.7804 86.3847 10.8251 86.3792C10.8697 86.373 10.9151 86.3753 10.9587 86.3859C11.0024 86.3964 11.0433 86.4151 11.0793 86.4407C11.1152 86.4663 11.1454 86.4984 11.168 86.5351C11.1906 86.5718 11.2053 86.6124 11.2111 86.6544C11.3049 87.2933 11.4192 87.9271 11.5513 88.546C11.567 88.6308 11.5469 88.7181 11.4953 88.7892C11.4436 88.8602 11.3645 88.9095 11.2748 88.9263C11.231 88.9348 11.1859 88.9349 11.142 88.9269C11.0981 88.9188 11.0563 88.9027 11.019 88.8794C10.9818 88.8561 10.9498 88.8261 10.9249 88.7911C10.8999 88.7561 10.8826 88.7168 10.8738 88.6755ZM12.4701 94.2876C12.4472 94.2095 12.4556 94.1262 12.4938 94.0536C12.5319 93.981 12.597 93.9241 12.6768 93.8938C12.7634 93.8661 12.858 93.8715 12.9405 93.9087C13.0229 93.946 13.0867 94.0121 13.1181 94.093C13.3095 94.5727 13.5056 95.0304 13.7305 95.512L13.8862 95.8661C13.905 95.9049 13.9155 95.9469 13.9168 95.9896C13.9182 96.0322 13.9105 96.0747 13.8942 96.1145C13.8778 96.1543 13.8532 96.1907 13.8218 96.2214C13.7903 96.2521 13.7526 96.2766 13.711 96.2934C13.6286 96.326 13.5358 96.3268 13.4528 96.2954C13.3698 96.264 13.3033 96.2031 13.2677 96.1258L13.1018 95.7742C12.8796 95.3023 12.6835 94.8445 12.4783 94.3166L12.4701 94.2876ZM10.2467 84.848L10.2329 84.7997C10.1726 84.1627 10.1171 83.5038 10.0848 82.8494C10.0818 82.7648 10.1135 82.6823 10.1732 82.6191C10.233 82.5558 10.3162 82.5166 10.4058 82.5096C10.4516 82.5065 10.4977 82.5123 10.5411 82.5265C10.5846 82.5407 10.6245 82.5631 10.6585 82.5922C10.6924 82.6214 10.7198 82.6568 10.7388 82.6962C10.7579 82.7356 10.7682 82.7783 10.7693 82.8216C10.8091 83.4637 10.8489 84.1059 10.9194 84.7404C10.9273 84.8248 10.8994 84.9088 10.8416 84.9738C10.7839 85.0389 10.7011 85.0796 10.6115 85.0872C10.5371 85.0834 10.4661 85.0567 10.4095 85.0111C10.3528 84.9655 10.3136 84.9037 10.298 84.8351L10.2467 84.848ZM14.1246 97.8247C14.1054 97.7532 14.1129 97.6777 14.146 97.6109C14.179 97.5441 14.2356 97.4901 14.306 97.458C14.3457 97.4374 14.3895 97.4247 14.4347 97.4208C14.4798 97.4169 14.5253 97.4218 14.5684 97.4353C14.6114 97.4487 14.651 97.4704 14.6847 97.4989C14.7185 97.5274 14.7456 97.5622 14.7643 97.6011C15.0652 98.1567 15.3921 98.7264 15.7395 99.2909C15.7615 99.3275 15.7756 99.3679 15.781 99.4096C15.7865 99.4513 15.7831 99.4937 15.7712 99.5342C15.7592 99.5747 15.7389 99.6126 15.7114 99.6457C15.6839 99.6788 15.6497 99.7065 15.6109 99.7272C15.5311 99.7696 15.437 99.7809 15.3485 99.7587C15.26 99.7366 15.1843 99.6826 15.1375 99.6085C14.7901 99.044 14.4605 98.4646 14.1541 97.8897L14.1246 97.8247ZM10.036 80.9775L10.014 80.9003C10.018 80.2574 10.0192 79.6049 10.0512 78.9446C10.0549 78.86 10.0941 78.7802 10.1602 78.7228C10.2262 78.6653 10.3138 78.6349 10.4036 78.6382C10.4485 78.6386 10.4929 78.6476 10.534 78.6648C10.575 78.6819 10.6119 78.7068 10.6424 78.7379C10.6729 78.769 10.6963 78.8057 10.7111 78.8456C10.726 78.8856 10.732 78.928 10.7288 78.9702C10.7146 79.6157 10.7004 80.2611 10.7039 80.8917C10.7058 80.9341 10.6985 80.9765 10.6823 81.0161C10.6662 81.0557 10.6415 81.0918 10.61 81.1221C10.5784 81.1524 10.5406 81.1763 10.4988 81.1922C10.4571 81.2082 10.4123 81.2159 10.3672 81.2149C10.2985 81.2062 10.2345 81.1774 10.1842 81.1325C10.1339 81.0875 10.1 81.0288 10.0872 80.9646L10.036 80.9775ZM16.1645 101.171C16.1464 101.104 16.1513 101.033 16.1783 100.969C16.2054 100.905 16.2532 100.85 16.3152 100.812C16.3912 100.767 16.4832 100.752 16.5709 100.771C16.6586 100.79 16.7349 100.84 16.783 100.912C17.1454 101.452 17.5284 101.987 17.929 102.507C17.9789 102.578 17.9984 102.664 17.9836 102.749C17.9689 102.833 17.9211 102.909 17.8496 102.962C17.7732 103.011 17.6793 103.029 17.5883 103.014C17.4973 102.998 17.4167 102.949 17.364 102.877C16.9633 102.357 16.5749 101.803 16.2125 101.263L16.1645 101.171ZM10.1828 77.0892L10.1526 76.983C10.2106 76.3368 10.2788 75.6881 10.3601 75.0464C10.365 75.0041 10.3788 74.9632 10.4007 74.926C10.4226 74.8888 10.4522 74.856 10.4877 74.8297C10.5232 74.8034 10.5639 74.784 10.6074 74.7727C10.651 74.7614 10.6965 74.7584 10.7413 74.7639C10.7862 74.7685 10.8296 74.7815 10.8691 74.8021C10.9086 74.8228 10.9433 74.8506 10.9713 74.8841C10.9992 74.9175 11.0198 74.9558 11.0318 74.9969C11.0438 75.0379 11.047 75.0807 11.0412 75.1229C10.9572 75.755 10.8862 76.394 10.8385 77.0376C10.8303 77.1219 10.787 77.1998 10.718 77.2541C10.6489 77.3084 10.5599 77.3347 10.4703 77.3272C10.4133 77.3118 10.3617 77.2822 10.3211 77.2414C10.2804 77.2006 10.2523 77.1502 10.2396 77.0956L10.1828 77.0892ZM18.5461 104.328C18.5298 104.268 18.5317 104.204 18.5516 104.144C18.5714 104.084 18.6084 104.031 18.6585 103.989C18.6957 103.948 18.743 103.916 18.7964 103.896C18.8498 103.876 18.9076 103.869 18.9647 103.875C19.0218 103.881 19.0765 103.9 19.1238 103.931C19.1712 103.961 19.2098 104.003 19.2364 104.051C19.6521 104.546 20.0807 105.049 20.5272 105.536C20.5568 105.568 20.5793 105.605 20.5936 105.646C20.6078 105.686 20.6134 105.728 20.6101 105.771C20.6068 105.813 20.5946 105.854 20.5743 105.892C20.5539 105.93 20.5258 105.963 20.4915 105.991C20.422 106.044 20.3331 106.071 20.2433 106.065C20.1536 106.058 20.0698 106.02 20.0094 105.957C19.5602 105.46 19.1185 104.95 18.6898 104.447L18.5461 104.328ZM10.6805 73.2366C10.659 73.1977 10.6468 73.1548 10.6448 73.111C10.7595 72.4713 10.8846 71.8289 11.0225 71.1936C11.0307 71.1519 11.0475 71.1122 11.0721 71.0767C11.0966 71.0412 11.1284 71.0107 11.1656 70.9868C11.2028 70.963 11.2446 70.9464 11.2887 70.9379C11.3327 70.9294 11.3781 70.9292 11.4223 70.9374C11.5129 70.9546 11.5926 71.0049 11.644 71.0772C11.6955 71.1496 11.7145 71.2381 11.6969 71.3236C11.5562 71.9492 11.4284 72.5819 11.3212 73.2095C11.3151 73.2512 11.3003 73.2913 11.2776 73.3276C11.255 73.3639 11.225 73.3956 11.1893 73.421C11.1537 73.4463 11.113 73.4648 11.0698 73.4753C11.0265 73.4859 10.9815 73.4883 10.9373 73.4824C10.886 73.4606 10.841 73.4274 10.8062 73.3857C10.7714 73.3441 10.7477 73.2951 10.7373 73.243L10.6805 73.2366ZM21.2378 107.262C21.2217 107.207 21.2213 107.15 21.2366 107.095C21.2519 107.04 21.2824 106.99 21.3249 106.95C21.3574 106.92 21.3959 106.897 21.4382 106.881C21.4805 106.865 21.5256 106.858 21.571 106.859C21.6164 106.86 21.6611 106.87 21.7025 106.887C21.7438 106.905 21.781 106.93 21.8118 106.962C22.2835 107.422 22.7655 107.881 23.2933 108.306C23.3569 108.368 23.3934 108.45 23.3954 108.536C23.3974 108.622 23.3648 108.705 23.3041 108.77C23.2731 108.8 23.236 108.824 23.195 108.841C23.154 108.858 23.1098 108.867 23.0651 108.868C23.0204 108.868 22.976 108.861 22.9344 108.845C22.8928 108.83 22.8548 108.807 22.8227 108.777C22.323 108.334 21.8383 107.866 21.3303 107.394C21.2974 107.36 21.2714 107.321 21.2536 107.279L21.2378 107.262ZM11.5038 69.4468C11.474 69.4001 11.4588 69.3466 11.4598 69.2922C11.6313 68.6588 11.8056 68.0351 12.0209 67.401C12.0495 67.3194 12.11 67.2511 12.19 67.2097C12.27 67.1684 12.3636 67.1572 12.452 67.1783C12.5387 67.2053 12.6112 67.2622 12.6551 67.3376C12.6989 67.4129 12.7109 67.5011 12.6885 67.5844C12.491 68.2037 12.314 68.8178 12.1192 69.4467C12.1092 69.4884 12.0904 69.5278 12.0639 69.5626C12.0375 69.5973 12.0039 69.6268 11.9652 69.6491C11.9264 69.6714 11.8833 69.6862 11.8384 69.6926C11.7935 69.6989 11.7477 69.6967 11.7037 69.6862C11.668 69.6558 11.6394 69.6187 11.62 69.5771C11.6007 69.5356 11.5909 69.4907 11.5913 69.4454L11.5038 69.4468ZM24.198 109.942C24.1843 109.889 24.1844 109.835 24.1983 109.782C24.2121 109.73 24.2394 109.682 24.2776 109.642C24.3401 109.581 24.4246 109.544 24.5146 109.538C24.6045 109.533 24.6934 109.559 24.7637 109.612C25.2682 110.034 25.8035 110.447 26.3332 110.842C26.402 110.896 26.4457 110.974 26.4554 111.058C26.465 111.143 26.4399 111.227 26.3851 111.294C26.3579 111.328 26.3239 111.356 26.2851 111.377C26.2463 111.398 26.2035 111.412 26.1591 111.417C26.1147 111.423 26.0695 111.42 26.0263 111.409C25.9831 111.398 25.9426 111.379 25.9072 111.353C25.3644 110.952 24.8264 110.528 24.3089 110.1C24.2626 110.063 24.2294 110.014 24.2137 109.958L24.198 109.942ZM12.7141 65.7041C12.6977 65.6413 12.7019 65.5753 12.7262 65.5147C12.947 64.9 13.191 64.2897 13.4378 63.689C13.4534 63.648 13.4777 63.6104 13.5092 63.5786C13.5408 63.5467 13.5789 63.5213 13.6213 63.5038C13.6636 63.4863 13.7093 63.4772 13.7556 63.477C13.8018 63.4767 13.8476 63.4853 13.8902 63.5024C13.9317 63.5183 13.9694 63.5418 14.0011 63.5716C14.0329 63.6013 14.0581 63.6367 14.0753 63.6756C14.0925 63.7146 14.1014 63.7564 14.1014 63.7986C14.1014 63.8408 14.0926 63.8825 14.0754 63.9215C13.8286 64.5221 13.5811 65.0815 13.3815 65.7324C13.349 65.8118 13.2851 65.8764 13.2032 65.9125C13.1213 65.9486 13.0278 65.9535 12.9421 65.9261C12.8918 65.9105 12.8463 65.8837 12.8093 65.848C12.7724 65.8122 12.7451 65.7686 12.7299 65.7209L12.7141 65.7041ZM27.4825 112.332C27.4701 112.286 27.4685 112.237 27.4779 112.19C27.4873 112.143 27.5074 112.099 27.5369 112.06C27.5633 112.026 27.5966 111.997 27.6348 111.975C27.673 111.954 27.7154 111.939 27.7595 111.933C27.8036 111.926 27.8486 111.928 27.892 111.938C27.9353 111.949 27.9761 111.967 28.012 111.991C28.5541 112.352 29.1379 112.743 29.7024 113.066C29.7807 113.11 29.8377 113.181 29.8613 113.264C29.8849 113.347 29.8732 113.435 29.8288 113.51C29.8067 113.548 29.7768 113.581 29.7408 113.607C29.7049 113.634 29.6637 113.653 29.6197 113.664C29.5757 113.675 29.5298 113.678 29.4847 113.672C29.4396 113.666 29.3962 113.651 29.3571 113.629C28.7741 113.28 28.1903 112.889 27.6408 112.541C27.5993 112.517 27.5637 112.485 27.5359 112.448C27.5082 112.41 27.4891 112.367 27.4798 112.323L27.4825 112.332ZM14.2255 62.0926C14.2046 62.0225 14.2106 61.9476 14.2423 61.8813C14.5226 61.2825 14.8289 60.6979 15.1249 60.1159C15.1471 60.0784 15.177 60.0455 15.2129 60.0191C15.2488 59.9927 15.29 59.9733 15.334 59.9622C15.378 59.9511 15.4239 59.9484 15.469 59.9544C15.5141 59.9604 15.5575 59.9748 15.5966 59.9969C15.6738 60.0394 15.7301 60.1089 15.7532 60.1903C15.7764 60.2716 15.7645 60.3583 15.7202 60.4315C15.4215 61.0039 15.1337 61.6149 14.8451 62.1846C14.8 62.2573 14.7262 62.3104 14.6399 62.3322C14.5535 62.354 14.4614 62.3428 14.3837 62.3011C14.3459 62.281 14.3129 62.2539 14.2866 62.2213C14.2604 62.1888 14.2414 62.1515 14.231 62.1119L14.2255 62.0926ZM30.9835 114.44C30.9656 114.356 30.9795 114.268 31.0229 114.192C31.0714 114.12 31.1468 114.068 31.2341 114.046C31.3214 114.024 31.4144 114.034 31.4945 114.073C32.0796 114.392 32.6852 114.705 33.2852 114.998C33.3624 115.041 33.4187 115.11 33.4418 115.192C33.465 115.273 33.4531 115.36 33.4089 115.433C33.3619 115.504 33.2881 115.555 33.2025 115.577C33.1169 115.598 33.0257 115.589 32.9474 115.549C32.3241 115.251 31.6776 114.949 31.1205 114.613C31.0562 114.571 31.0081 114.51 30.9835 114.44ZM16.1105 58.6352C16.0882 58.5527 16.0985 58.4655 16.1396 58.3897C16.4821 57.8167 16.8376 57.2507 17.1987 56.704C17.2454 56.6303 17.3208 56.5766 17.4088 56.5543C17.4969 56.5321 17.5907 56.5431 17.6703 56.585C17.7475 56.6275 17.8038 56.697 17.8269 56.7784C17.8501 56.8598 17.8382 56.9465 17.794 57.0197C17.4432 57.5637 17.0952 58.1175 16.7601 58.6783C16.7134 58.752 16.638 58.8057 16.5499 58.828C16.4619 58.8502 16.3681 58.8392 16.2885 58.7973C16.2423 58.7888 16.1988 58.7708 16.1609 58.7446C16.123 58.7183 16.0918 58.6845 16.0694 58.6455L16.1105 58.6352ZM34.6817 116.199C34.6592 116.126 34.6642 116.048 34.6958 115.978C34.7425 115.904 34.8179 115.85 34.906 115.828C34.994 115.806 35.0878 115.817 35.1674 115.859C35.7798 116.118 36.4126 116.373 37.0475 116.595C37.1306 116.628 37.1973 116.689 37.2337 116.767C37.27 116.844 37.2733 116.932 37.2429 117.012C37.2282 117.052 37.2047 117.09 37.174 117.121C37.1433 117.153 37.1061 117.178 37.0645 117.195C37.023 117.212 36.9781 117.221 36.9327 117.222C36.8873 117.222 36.8424 117.213 36.8007 117.196C36.1528 116.966 35.561 116.701 34.8844 116.448C34.8204 116.437 34.7609 116.41 34.7124 116.369C34.6639 116.328 34.6284 116.275 34.6099 116.217L34.6817 116.199ZM18.3252 55.3327C18.3093 55.2876 18.3051 55.2396 18.3127 55.1927C18.3204 55.1458 18.3398 55.1012 18.3693 55.0627C18.7666 54.5276 19.1666 54.0022 19.5899 53.4812C19.6171 53.4477 19.6511 53.4196 19.6899 53.3985C19.7287 53.3774 19.7715 53.3638 19.8159 53.3583C19.8603 53.3529 19.9055 53.3558 19.9487 53.3668C19.9919 53.3779 20.0324 53.3968 20.0678 53.4227C20.1407 53.4759 20.1884 53.554 20.2005 53.6401C20.2126 53.7262 20.1883 53.8133 20.1327 53.8826C19.7244 54.379 19.3243 54.9045 18.9346 55.4273C18.8879 55.5011 18.8125 55.5548 18.7244 55.577C18.6363 55.5992 18.5425 55.5882 18.4629 55.5464C18.4157 55.529 18.3727 55.5026 18.3367 55.469C18.3006 55.4354 18.2723 55.3951 18.2534 55.3508L18.3252 55.3327ZM38.5175 117.591C38.497 117.533 38.4986 117.47 38.5221 117.414C38.5506 117.332 38.6119 117.264 38.693 117.224C38.7741 117.184 38.8685 117.176 38.956 117.201C39.5956 117.402 40.253 117.588 40.9021 117.745C40.9458 117.755 40.9868 117.774 41.0228 117.799C41.0587 117.825 41.0889 117.857 41.1116 117.894C41.1343 117.93 41.1491 117.971 41.155 118.013C41.1609 118.055 41.1578 118.098 41.146 118.139C41.1211 118.22 41.0638 118.29 40.9859 118.333C40.908 118.375 40.8156 118.388 40.7279 118.368C40.063 118.195 39.3954 118.011 38.7407 117.835C38.6778 117.823 38.6196 117.795 38.5728 117.754C38.5261 117.713 38.4927 117.66 38.4765 117.601L38.5175 117.591ZM20.8247 52.2585C20.8092 52.2074 20.8074 52.1536 20.8195 52.1017C20.8316 52.0499 20.8572 52.0017 20.894 51.9615C21.3358 51.4669 21.8009 50.9768 22.2714 50.506C22.3326 50.4442 22.4173 50.4077 22.5069 50.4044C22.5966 50.4012 22.684 50.4315 22.75 50.4888C22.8167 50.5478 22.8562 50.6289 22.8601 50.715C22.864 50.801 22.8321 50.8851 22.7711 50.9493C22.3081 51.4078 21.8533 51.8953 21.4088 52.3802C21.38 52.4131 21.3446 52.4402 21.3046 52.46C21.2646 52.4798 21.2208 52.4918 21.1758 52.4955C21.1308 52.4991 21.0855 52.4943 21.0425 52.4812C20.9995 52.4682 20.9597 52.4472 20.9254 52.4194C20.8553 52.3872 20.7958 52.3379 20.7529 52.2766L20.8247 52.2585ZM42.4855 118.598C42.458 118.554 42.4438 118.504 42.4443 118.453C42.463 118.37 42.5159 118.297 42.5914 118.251C42.6668 118.205 42.7587 118.189 42.8467 118.206C43.5211 118.336 44.1928 118.457 44.8562 118.548C44.9004 118.554 44.9429 118.568 44.9812 118.589C45.0195 118.611 45.0527 118.64 45.0789 118.674C45.105 118.708 45.1235 118.746 45.1333 118.787C45.143 118.829 45.1438 118.871 45.1356 118.912C45.1295 118.954 45.1147 118.994 45.092 119.03C45.0694 119.067 45.0394 119.098 45.0037 119.124C44.9681 119.149 44.9275 119.168 44.8842 119.178C44.841 119.189 44.7959 119.191 44.7517 119.185C44.0753 119.087 43.3934 118.969 42.7087 118.842C42.6417 118.835 42.5782 118.81 42.5259 118.77C42.4736 118.73 42.4346 118.676 42.4137 118.616L42.4855 118.598ZM23.6349 49.4268C23.6199 49.3722 23.62 49.3148 23.6353 49.2602C23.6505 49.2056 23.6804 49.1556 23.722 49.115C24.2257 48.6704 24.7379 48.2305 25.2589 47.7953C25.2928 47.7674 25.3322 47.7461 25.3748 47.7327C25.4175 47.7193 25.4626 47.7141 25.5074 47.7172C25.5523 47.7203 25.596 47.7318 25.6361 47.751C25.6762 47.7701 25.7119 47.7967 25.741 47.8289C25.7706 47.8608 25.7932 47.8979 25.8074 47.9381C25.8216 47.9783 25.8273 48.0208 25.8239 48.063C25.8206 48.1053 25.8084 48.1465 25.7881 48.1842C25.7677 48.222 25.7396 48.2556 25.7054 48.2831C25.1978 48.7011 24.6855 49.1409 24.2067 49.5827C24.1743 49.6126 24.1358 49.6361 24.0935 49.6517C24.0512 49.6674 24.0061 49.6748 23.9607 49.6738C23.9153 49.6727 23.8706 49.663 23.8292 49.6454C23.7879 49.6277 23.7507 49.6024 23.7198 49.571C23.6538 49.5472 23.5984 49.5027 23.5631 49.445L23.6349 49.4268ZM46.5624 119.215L46.5322 119.108C46.5423 119.023 46.5876 118.944 46.6583 118.89C46.729 118.835 46.8195 118.809 46.9106 118.816C47.4188 118.864 47.9344 118.899 48.4445 118.916L48.9444 118.934C49.0342 118.938 49.1189 118.975 49.1798 119.037C49.2408 119.099 49.2731 119.182 49.2696 119.266C49.2691 119.309 49.2596 119.351 49.2416 119.39C49.2237 119.429 49.1977 119.464 49.1651 119.494C49.1326 119.523 49.0941 119.546 49.052 119.561C49.0099 119.577 48.965 119.584 48.9199 119.582L48.42 119.564C47.8867 119.543 47.371 119.508 46.8424 119.465C46.7559 119.467 46.6714 119.44 46.6043 119.389C46.5372 119.337 46.492 119.265 46.4769 119.185L46.5624 119.215ZM50.677 119.346L50.655 119.269C50.6541 119.183 50.6885 119.101 50.7507 119.039C50.813 118.977 50.8984 118.94 50.9889 118.936C51.6556 118.923 52.3401 118.895 53.0293 118.845C53.0734 118.842 53.1178 118.846 53.1599 118.859C53.202 118.872 53.2409 118.893 53.2744 118.92C53.3078 118.947 53.335 118.981 53.3544 119.018C53.3738 119.056 53.385 119.096 53.3873 119.138C53.3952 119.223 53.3672 119.307 53.3095 119.372C53.2518 119.437 53.169 119.477 53.0793 119.485C52.3799 119.537 51.6852 119.568 51.0082 119.583C50.9622 119.592 50.9146 119.593 50.8684 119.584C50.8223 119.575 50.7784 119.558 50.7395 119.533C50.7006 119.508 50.6675 119.476 50.642 119.439C50.6166 119.401 50.5994 119.36 50.5915 119.316L50.677 119.346ZM54.7815 119.055L54.7677 119.007C54.7575 118.923 54.7828 118.839 54.838 118.773C54.8932 118.707 54.9739 118.664 55.0627 118.653C55.7701 118.564 56.4483 118.476 57.0973 118.388C57.1411 118.381 57.186 118.382 57.2293 118.392C57.2726 118.401 57.3134 118.419 57.3492 118.444C57.385 118.468 57.4151 118.5 57.4377 118.536C57.4603 118.572 57.4749 118.612 57.4806 118.654C57.4883 118.695 57.4872 118.738 57.4773 118.779C57.4674 118.82 57.4489 118.859 57.423 118.894C57.397 118.928 57.3641 118.958 57.326 118.98C57.288 119.002 57.2456 119.017 57.2014 119.024C56.5156 119.125 55.8374 119.213 55.1462 119.295C55.0978 119.313 55.0456 119.32 54.9937 119.315C54.9419 119.311 54.892 119.295 54.848 119.268C54.8041 119.242 54.7673 119.206 54.7409 119.164C54.7145 119.122 54.6991 119.074 54.6959 119.025L54.7815 119.055ZM58.8418 118.455C58.8341 118.413 58.8352 118.371 58.8451 118.329C58.855 118.288 58.8734 118.249 58.8993 118.215C58.9253 118.18 58.9583 118.151 58.9963 118.129C59.0343 118.106 59.0767 118.091 59.121 118.084C59.7772 117.919 60.4554 117.83 61.1199 117.694C61.1642 117.684 61.2102 117.682 61.2552 117.689C61.3001 117.697 61.343 117.712 61.3814 117.736C61.4198 117.759 61.4528 117.789 61.4785 117.824C61.5043 117.86 61.5222 117.9 61.5312 117.942C61.5417 117.984 61.5431 118.027 61.5355 118.069C61.5278 118.112 61.5112 118.152 61.4866 118.188C61.4621 118.224 61.43 118.255 61.3924 118.28C61.3548 118.304 61.3124 118.321 61.2677 118.329C60.6012 118.497 59.9155 118.598 59.2455 118.715C59.1935 118.739 59.1357 118.751 59.0778 118.748C59.0199 118.745 58.9638 118.728 58.9148 118.699C58.8657 118.67 58.8254 118.629 58.7977 118.581C58.7699 118.533 58.7557 118.479 58.7563 118.425L58.8418 118.455ZM62.8621 117.637C62.8504 117.596 62.8477 117.553 62.8542 117.511C62.8608 117.469 62.8764 117.429 62.9001 117.393C62.9239 117.357 62.9552 117.325 62.9922 117.301C63.0292 117.277 63.0711 117.26 63.1153 117.252C63.7818 117.084 64.4381 116.918 65.0943 116.752C65.1813 116.731 65.274 116.742 65.3521 116.784C65.4301 116.827 65.487 116.897 65.5103 116.979C65.5205 117.02 65.5221 117.062 65.5149 117.104C65.5077 117.145 65.4919 117.185 65.4684 117.221C65.4449 117.256 65.4141 117.287 65.3779 117.312C65.3416 117.336 65.3006 117.354 65.2571 117.364C64.6009 117.529 63.9344 117.697 63.2679 117.866C63.2183 117.889 63.1633 117.901 63.1077 117.9C63.0521 117.899 62.9977 117.885 62.9492 117.859C62.9007 117.834 62.8596 117.797 62.8295 117.753C62.7994 117.709 62.7813 117.659 62.7766 117.607L62.8621 117.637ZM66.857 116.691C66.8338 116.609 66.8443 116.523 66.8865 116.449C66.9288 116.374 66.9995 116.318 67.0842 116.292C67.7097 116.134 68.366 115.968 69.0255 115.698C69.1121 115.67 69.2067 115.676 69.2892 115.713C69.3716 115.75 69.4354 115.816 69.4668 115.897C69.4934 115.979 69.4864 116.067 69.4473 116.144C69.4081 116.221 69.3396 116.281 69.2553 116.313C68.5746 116.547 67.9061 116.747 67.2321 116.927C67.145 116.949 67.0523 116.938 66.9743 116.895C66.8963 116.853 66.8394 116.783 66.816 116.701L66.857 116.691ZM70.727 115.382C70.7049 115.307 70.7129 115.226 70.7496 115.156C70.7863 115.086 70.8492 115.03 70.9262 115.001C71.5372 114.753 72.1557 114.494 72.7893 114.21C72.8721 114.174 72.9666 114.169 73.0528 114.198C73.1389 114.226 73.2098 114.285 73.2503 114.362C73.2887 114.441 73.2932 114.53 73.2629 114.611C73.2326 114.692 73.1699 114.759 73.0881 114.797C72.4444 115.084 71.8156 115.346 71.1943 115.596C71.1092 115.629 71.0135 115.629 70.9281 115.597C70.8427 115.564 70.7744 115.501 70.738 115.421L70.727 115.382ZM74.4544 113.727C74.433 113.656 74.4395 113.579 74.4728 113.512C74.5061 113.445 74.5639 113.391 74.6358 113.361C75.2228 113.067 75.8276 112.759 76.4296 112.442C76.5108 112.399 76.6066 112.389 76.6958 112.413C76.7851 112.437 76.8606 112.494 76.9057 112.57C76.9473 112.646 76.9561 112.734 76.9302 112.816C76.9043 112.898 76.8457 112.967 76.7667 113.009C76.1545 113.329 75.5497 113.637 74.9422 113.935C74.8609 113.972 74.768 113.977 74.6827 113.95C74.5974 113.923 74.5262 113.867 74.4839 113.792L74.4544 113.727ZM78.0487 111.836C78.031 111.768 78.0371 111.696 78.066 111.631C78.095 111.566 78.1453 111.511 78.2097 111.475C78.7884 111.153 79.372 110.809 79.9555 110.465C79.9927 110.441 80.0347 110.425 80.0788 110.417C80.123 110.409 80.1684 110.41 80.2122 110.419C80.256 110.429 80.2974 110.446 80.3337 110.471C80.37 110.496 80.4005 110.528 80.4233 110.564C80.4485 110.599 80.4658 110.639 80.4741 110.68C80.4825 110.722 80.4817 110.765 80.4718 110.806C80.4619 110.847 80.4431 110.886 80.4167 110.92C80.3902 110.955 80.3566 110.983 80.3179 111.005C79.7371 111.359 79.1536 111.703 78.5646 112.027C78.5262 112.05 78.4835 112.064 78.4389 112.071C78.3943 112.078 78.3488 112.076 78.305 112.066C78.2612 112.056 78.22 112.037 78.1838 112.012C78.1475 111.987 78.117 111.955 78.094 111.918L78.0487 111.836ZM81.5211 109.749C81.501 109.683 81.5038 109.613 81.5291 109.549C81.5544 109.485 81.6008 109.43 81.6616 109.392C82.2293 109.032 82.7841 108.664 83.3361 108.286C83.372 108.261 83.4131 108.242 83.4568 108.231C83.5005 108.22 83.546 108.218 83.5907 108.224C83.6354 108.23 83.6784 108.244 83.7171 108.266C83.7558 108.288 83.7895 108.317 83.8162 108.352C83.8686 108.422 83.8897 108.509 83.8748 108.594C83.86 108.679 83.8105 108.755 83.7368 108.806C83.1848 109.184 82.6225 109.564 82.0445 109.927C81.9709 109.976 81.8798 109.995 81.7912 109.981C81.7026 109.966 81.6237 109.919 81.5719 109.85L81.5211 109.749ZM84.8483 107.46C84.8314 107.398 84.834 107.332 84.8558 107.272C84.8775 107.211 84.9176 107.158 84.971 107.118C85.5175 106.721 86.051 106.317 86.5613 105.909C86.5952 105.88 86.6352 105.858 86.6787 105.844C86.7222 105.831 86.7683 105.826 86.8139 105.83C86.8596 105.834 86.9038 105.847 86.9438 105.868C86.9838 105.889 87.0187 105.918 87.0462 105.952C87.0754 105.984 87.0976 106.02 87.1115 106.059C87.1254 106.099 87.1307 106.141 87.1271 106.182C87.1236 106.224 87.1111 106.264 87.0906 106.301C87.0701 106.338 87.042 106.37 87.0078 106.397C86.4797 106.82 85.9462 107.224 85.3922 107.633C85.357 107.659 85.3167 107.678 85.2737 107.689C85.2306 107.7 85.1856 107.704 85.1413 107.698C85.0969 107.693 85.0541 107.68 85.0152 107.659C84.9764 107.638 84.9423 107.611 84.9148 107.577L84.8483 107.46ZM85.0932 98.3908C84.9147 97.7629 84.8256 97.1021 84.7318 96.4632C84.7237 96.4211 84.725 96.3777 84.7356 96.3361C84.7462 96.2944 84.7658 96.2552 84.7933 96.221C84.8207 96.1869 84.8554 96.1584 84.8951 96.1375C84.9348 96.1166 84.9787 96.1037 85.024 96.0996C85.0686 96.0934 85.114 96.0957 85.1577 96.1063C85.2013 96.1168 85.2423 96.1354 85.2782 96.1611C85.3141 96.1867 85.3443 96.2188 85.3669 96.2555C85.3895 96.2922 85.4042 96.3328 85.41 96.3749C85.4983 96.9944 85.6256 97.6352 85.768 98.2515C85.7785 98.2933 85.7799 98.3366 85.7723 98.3789C85.7646 98.4213 85.748 98.4617 85.7235 98.4979C85.6989 98.534 85.6668 98.5651 85.6292 98.5894C85.5916 98.6136 85.5492 98.6305 85.5045 98.639C85.4529 98.6615 85.3961 98.6718 85.3393 98.6691C85.2824 98.6663 85.2272 98.6505 85.1782 98.6231C85.1293 98.5957 85.0882 98.5575 85.0585 98.5117C85.0288 98.466 85.0114 98.4141 85.0077 98.3606L85.0932 98.3908ZM85.6262 100.265C85.6005 100.185 85.6088 100.099 85.6493 100.025C85.6898 99.951 85.7594 99.8948 85.8432 99.8683C85.9305 99.8434 86.0246 99.8516 86.1057 99.891C86.1867 99.9305 86.2481 99.9982 86.277 100.08C86.4556 100.708 86.7237 101.302 86.9836 101.868C87.0162 101.949 87.0152 102.038 86.9808 102.118C86.9464 102.198 86.8811 102.262 86.7981 102.298C86.7565 102.315 86.7119 102.323 86.6668 102.323C86.6218 102.323 86.5772 102.314 86.5357 102.298C86.4942 102.281 86.4565 102.257 86.425 102.227C86.3935 102.196 86.3687 102.16 86.3521 102.121C86.0867 101.536 85.8438 100.914 85.618 100.236L85.6262 100.265ZM84.5406 94.5548L84.5214 94.4872C84.4864 93.8299 84.4936 93.1712 84.5428 92.5147C84.5486 92.4289 84.5897 92.3485 84.6575 92.2908C84.7252 92.2331 84.8143 92.2026 84.9055 92.2058C84.9505 92.2084 84.9945 92.2194 85.0349 92.2382C85.0753 92.257 85.1114 92.2832 85.141 92.3152C85.1705 92.3473 85.193 92.3845 85.2072 92.4249C85.2213 92.4652 85.2268 92.5077 85.2233 92.5501C85.1768 93.1856 85.171 93.8232 85.2059 94.4594C85.2077 94.502 85.2004 94.5445 85.1845 94.5845C85.1686 94.6244 85.1444 94.661 85.1133 94.692C85.0822 94.723 85.0448 94.7478 85.0033 94.765C84.9619 94.7822 84.9172 94.7914 84.8719 94.7921C84.8262 94.8012 84.779 94.8013 84.7333 94.7924C84.6876 94.7835 84.6444 94.7658 84.6062 94.7405C84.5681 94.7151 84.5359 94.6827 84.5116 94.6451C84.4874 94.6075 84.4717 94.5656 84.4654 94.522L84.5406 94.5548ZM87.25 103.81C87.2304 103.741 87.2356 103.668 87.2648 103.603C87.2939 103.537 87.3453 103.483 87.4109 103.448C87.4899 103.409 87.5819 103.399 87.668 103.422C87.7541 103.445 87.8278 103.497 87.874 103.569C88.0412 103.848 88.2289 104.122 88.4111 104.376C88.8066 104.027 89.1993 103.67 89.5715 103.317C89.6371 103.255 89.7259 103.22 89.8186 103.22C89.9113 103.22 90.0002 103.255 90.0659 103.316C90.1256 103.379 90.1585 103.46 90.1581 103.545C90.1577 103.629 90.1241 103.71 90.0638 103.772C89.6635 104.142 89.2455 104.527 88.8043 104.908L88.9988 105.128C89.0551 105.196 89.0809 105.283 89.0703 105.369C89.0598 105.455 89.014 105.533 88.9426 105.587C88.9074 105.613 88.8671 105.633 88.8241 105.644C88.781 105.655 88.736 105.658 88.6917 105.653C88.6473 105.648 88.6045 105.635 88.5657 105.614C88.5268 105.593 88.4927 105.565 88.4652 105.532L88.1523 105.166L88.079 105.101C88.0494 105.051 88.0333 104.995 88.0323 104.937C87.7844 104.606 87.5514 104.251 87.326 103.884L87.25 103.81ZM84.8503 90.6979C84.8262 90.6527 84.8122 90.6034 84.8091 90.553C84.9587 89.8917 85.2019 89.2523 85.5322 88.6519C85.5789 88.5782 85.6543 88.5245 85.7424 88.5022C85.8304 88.48 85.9242 88.491 86.0038 88.5329C86.0437 88.5537 86.0786 88.5819 86.1067 88.6157C86.1347 88.6495 86.1552 88.6883 86.167 88.7298C86.1788 88.7712 86.1816 88.8145 86.1753 88.857C86.169 88.8995 86.1537 88.9404 86.1302 88.9772C85.835 89.5292 85.6136 90.1137 85.4712 90.7171C85.4621 90.7583 85.4443 90.7972 85.4187 90.8317C85.3931 90.8661 85.3604 90.8953 85.3225 90.9174C85.2846 90.9396 85.2424 90.9543 85.1983 90.9606C85.1542 90.9668 85.1092 90.9646 85.066 90.954C84.99 90.9439 84.9198 90.9099 84.867 90.8574C84.8142 90.8049 84.7817 90.7371 84.775 90.6651L84.8503 90.6979ZM89.8447 106.788C89.8304 106.74 89.8285 106.689 89.8393 106.639C89.8501 106.59 89.8731 106.543 89.9065 106.504C89.9647 106.439 90.047 106.398 90.1365 106.389C90.226 106.38 90.3157 106.403 90.3872 106.455C90.7643 106.742 91.1767 106.986 91.6155 107.18C91.7661 107.246 91.9193 107.321 92.0801 107.384C92.1552 107.428 92.2098 107.497 92.2327 107.578C92.2557 107.659 92.2453 107.745 92.2037 107.818C92.1816 107.856 92.1517 107.889 92.1158 107.915C92.0799 107.942 92.0387 107.961 91.9947 107.972C91.9507 107.983 91.9047 107.986 91.8596 107.98C91.8145 107.974 91.7711 107.959 91.7321 107.937C91.5713 107.874 91.418 107.799 91.2545 107.727C90.7826 107.499 90.3368 107.227 89.9242 106.913C89.8568 106.877 89.8028 106.822 89.7694 106.756L89.8447 106.788ZM90.909 102.223C90.8935 102.172 90.8917 102.118 90.9039 102.067C90.916 102.015 90.9416 101.967 90.9784 101.926C91.4509 101.424 91.8927 100.929 92.2832 100.448C92.3428 100.382 92.4267 100.34 92.5179 100.331C92.6091 100.321 92.7007 100.345 92.7741 100.396C92.8094 100.423 92.8386 100.455 92.8603 100.493C92.882 100.53 92.8957 100.57 92.9005 100.613C92.9053 100.655 92.9012 100.697 92.8884 100.738C92.8757 100.779 92.8544 100.816 92.826 100.849C92.428 101.343 92.0095 101.842 91.4959 102.355C91.4333 102.418 91.3471 102.455 91.2557 102.458C91.1644 102.462 91.0751 102.432 91.007 102.375C90.9642 102.36 90.926 102.335 90.8958 102.303C90.8656 102.271 90.8443 102.232 90.8338 102.191L90.909 102.223ZM86.9092 87.4658C86.8897 87.3972 86.8949 87.3245 86.924 87.259C86.9531 87.1936 87.0045 87.1391 87.0701 87.1042C87.2914 86.9862 87.5277 86.8952 87.7734 86.8335C88.2694 86.7151 88.787 86.7011 89.2893 86.7925C89.3336 86.8002 89.3757 86.816 89.4134 86.8391C89.4511 86.8623 89.4835 86.8922 89.5088 86.9272C89.5341 86.9623 89.5518 87.0017 89.5608 87.0432C89.5698 87.0847 89.57 87.1275 89.5613 87.169C89.5541 87.2101 89.5382 87.2494 89.5146 87.2845C89.4909 87.3197 89.46 87.35 89.4237 87.3737C89.3873 87.3974 89.3463 87.4139 89.303 87.4223C89.2598 87.4307 89.2151 87.4308 89.1718 87.4226C88.7668 87.3547 88.3512 87.3679 87.952 87.4614C87.761 87.5072 87.5776 87.5778 87.4073 87.6713C87.3684 87.692 87.3256 87.7053 87.2813 87.7104C87.237 87.7156 87.1921 87.7124 87.149 87.7011C87.106 87.6899 87.0658 87.6707 87.0307 87.6448C86.9955 87.6189 86.9661 87.5867 86.9442 87.5501L86.9092 87.4658ZM93.5038 108.525C93.4851 108.46 93.4883 108.39 93.5131 108.326C93.5281 108.286 93.5514 108.249 93.5818 108.218C93.6121 108.186 93.6488 108.161 93.6897 108.143C93.7306 108.125 93.7749 108.114 93.8201 108.113C93.8652 108.111 93.9103 108.118 93.9526 108.133C94.5874 108.355 95.2373 108.554 95.8782 108.682C95.9212 108.693 95.9614 108.713 95.9965 108.739C96.0315 108.765 96.0608 108.798 96.0825 108.834C96.1042 108.871 96.118 108.912 96.123 108.954C96.128 108.996 96.1242 109.038 96.1119 109.078C96.0996 109.119 96.0791 109.157 96.0513 109.19C96.0235 109.223 95.989 109.25 95.9499 109.271C95.9108 109.291 95.8678 109.304 95.8234 109.309C95.7789 109.314 95.7339 109.31 95.6909 109.299C95.0288 109.134 94.3659 108.929 93.7078 108.702C93.6449 108.696 93.585 108.673 93.5355 108.636C93.486 108.599 93.4489 108.549 93.4286 108.493L93.5038 108.525ZM93.4215 99.1563C93.4092 99.1123 93.407 99.0663 93.4151 99.0214C93.4232 98.9765 93.4413 98.9338 93.4684 98.896C93.8313 98.364 94.1585 97.8112 94.4482 97.2407C94.4949 97.167 94.5703 97.1133 94.6584 97.091C94.7464 97.0688 94.8402 97.0798 94.9199 97.1217C94.9971 97.1642 95.0533 97.2337 95.0765 97.315C95.0996 97.3964 95.0878 97.4831 95.0435 97.5563C94.7388 98.1513 94.3965 98.7286 94.0186 99.2851C93.9965 99.3226 93.9666 99.3556 93.9307 99.382C93.8948 99.4084 93.8536 99.4277 93.8096 99.4388C93.7656 99.4499 93.7196 99.4526 93.6745 99.4466C93.6294 99.4407 93.586 99.4262 93.547 99.4042C93.489 99.3797 93.4395 99.3405 93.404 99.2909C93.3685 99.2413 93.3485 99.1833 93.3462 99.1235L93.4215 99.1563ZM90.8176 87.8768C90.7962 87.7991 90.8038 87.7167 90.8392 87.6436C90.8877 87.5717 90.9631 87.5196 91.0504 87.4975C91.1378 87.4755 91.2307 87.4851 91.3109 87.5246C91.9432 87.8223 92.5487 88.168 93.1215 88.5583C93.1575 88.5832 93.1879 88.6146 93.211 88.6505C93.2341 88.6865 93.2495 88.7264 93.2562 88.768C93.2629 88.8096 93.2609 88.852 93.2502 88.8928C93.2395 88.9336 93.2204 88.9721 93.1939 89.0059C93.139 89.0753 93.0573 89.1216 92.9666 89.1349C92.8758 89.1481 92.7831 89.1272 92.7085 89.0767C92.1711 88.7086 91.6011 88.3849 91.0046 88.1092C90.9394 88.0917 90.8805 88.0578 90.8342 88.0111C90.788 87.9643 90.7562 87.9066 90.7424 87.8441L90.8176 87.8768ZM97.4643 109.545C97.442 109.502 97.4289 109.456 97.4258 109.409C97.434 109.368 97.4508 109.328 97.4754 109.292C97.4999 109.257 97.5317 109.226 97.5689 109.203C97.606 109.179 97.6479 109.162 97.6919 109.154C97.736 109.145 97.7814 109.145 97.8255 109.153C98.4944 109.264 99.1654 109.343 99.841 109.4C99.9306 109.408 100.013 109.449 100.071 109.514C100.128 109.579 100.156 109.663 100.148 109.747C100.146 109.789 100.134 109.831 100.114 109.869C100.094 109.907 100.066 109.941 100.032 109.969C99.9983 109.997 99.9587 110.018 99.9159 110.031C99.8731 110.044 99.828 110.05 99.783 110.046C99.0841 109.985 98.3899 109.901 97.7081 109.783C97.6292 109.782 97.5535 109.753 97.495 109.703C97.4364 109.654 97.3988 109.586 97.389 109.512L97.4643 109.545ZM95.1457 95.636C95.1328 95.5805 95.1353 95.5228 95.153 95.4685C95.3287 94.8762 95.4208 94.2647 95.4269 93.6497C95.4265 93.6077 95.4348 93.566 95.4515 93.527C95.4682 93.488 95.4929 93.4524 95.5242 93.4224C95.5554 93.3924 95.5927 93.3685 95.6338 93.3521C95.6749 93.3356 95.719 93.327 95.7636 93.3266C95.8086 93.3248 95.8536 93.3317 95.8956 93.347C95.9377 93.3622 95.976 93.3854 96.0081 93.4151C96.0403 93.4449 96.0656 93.4805 96.0826 93.5198C96.0995 93.5592 96.1077 93.6014 96.1066 93.6438C96.1029 94.319 96.0059 94.9908 95.8178 95.6423C95.7914 95.7253 95.7314 95.7952 95.6507 95.8369C95.57 95.8786 95.4752 95.8887 95.3867 95.865C95.3146 95.8597 95.2461 95.8336 95.1905 95.7902C95.1349 95.7467 95.0948 95.6882 95.0759 95.6225L95.1457 95.636ZM94.0747 90.1709C94.0585 90.1101 94.0604 90.0463 94.0802 89.9865C94.1001 89.9267 94.1371 89.8732 94.1871 89.8319C94.2568 89.7793 94.3456 89.7545 94.4344 89.7631C94.5232 89.7717 94.6049 89.8129 94.6617 89.8778C95.1336 90.4119 95.5034 91.0191 95.7547 91.6724C95.7705 91.712 95.7778 91.7541 95.7762 91.7963C95.7746 91.8386 95.7642 91.8801 95.7455 91.9185C95.7268 91.9569 95.7002 91.9915 95.6672 92.0201C95.6343 92.0488 95.5956 92.071 95.5535 92.0856C95.5116 92.1019 95.4667 92.1099 95.4214 92.1091C95.3761 92.1083 95.3315 92.0987 95.2903 92.0809C95.2491 92.0631 95.2123 92.0375 95.1821 92.0057C95.152 91.9739 95.1291 91.9366 95.1149 91.896C94.8853 91.3244 94.5593 90.7914 94.1495 90.3177C94.0829 90.2817 94.0318 90.225 94.005 90.1574L94.0747 90.1709ZM101.551 109.849L101.529 109.771C101.53 109.685 101.567 109.603 101.632 109.542C101.697 109.481 101.785 109.446 101.876 109.446C102.545 109.442 103.227 109.405 103.89 109.341C103.935 109.336 103.981 109.339 104.025 109.351C104.068 109.363 104.109 109.383 104.144 109.409C104.179 109.436 104.208 109.469 104.23 109.507C104.251 109.545 104.265 109.586 104.269 109.628C104.277 109.713 104.25 109.798 104.193 109.865C104.136 109.931 104.054 109.974 103.964 109.985C103.28 110.054 102.575 110.087 101.885 110.095C101.795 110.11 101.702 110.091 101.627 110.043C101.551 109.994 101.499 109.92 101.481 109.835L101.551 109.849ZM105.646 109.446C105.635 109.405 105.634 109.361 105.642 109.319C105.649 109.277 105.666 109.236 105.69 109.2C105.715 109.164 105.747 109.133 105.785 109.109C105.822 109.084 105.865 109.068 105.909 109.059C106.33 108.953 106.74 108.849 107.16 108.743C107.396 108.684 107.632 108.624 107.868 108.565C107.91 108.553 107.955 108.548 108 108.553C108.044 108.557 108.087 108.569 108.127 108.589C108.166 108.609 108.201 108.636 108.229 108.668C108.257 108.701 108.278 108.738 108.291 108.779C108.306 108.819 108.312 108.862 108.308 108.905C108.305 108.948 108.292 108.99 108.271 109.028C108.25 109.066 108.221 109.1 108.186 109.127C108.151 109.155 108.11 109.175 108.067 109.187C107.821 109.249 107.585 109.309 107.339 109.371C106.908 109.48 106.478 109.589 106.047 109.697C105.998 109.717 105.944 109.725 105.891 109.722C105.838 109.718 105.786 109.703 105.74 109.678C105.695 109.652 105.656 109.616 105.627 109.574C105.599 109.531 105.581 109.483 105.576 109.433L105.646 109.446ZM109.578 108.319C109.556 108.244 109.564 108.163 109.601 108.093C109.638 108.022 109.7 107.967 109.777 107.938C110.391 107.7 111.007 107.431 111.615 107.132C111.655 107.113 111.698 107.102 111.743 107.099C111.788 107.095 111.833 107.101 111.875 107.114C111.918 107.127 111.957 107.148 111.991 107.176C112.025 107.204 112.053 107.238 112.073 107.275C112.114 107.35 112.122 107.437 112.095 107.517C112.069 107.598 112.01 107.665 111.931 107.705C111.303 108.008 110.67 108.292 110.035 108.535C109.994 108.551 109.949 108.56 109.904 108.56C109.859 108.56 109.814 108.551 109.773 108.535C109.731 108.518 109.694 108.494 109.662 108.464C109.631 108.433 109.606 108.397 109.589 108.358L109.578 108.319ZM113.226 106.539C113.196 106.486 113.183 106.425 113.189 106.364C113.196 106.304 113.221 106.246 113.261 106.199C113.824 105.86 114.389 105.49 114.928 105.105C114.964 105.079 115.004 105.06 115.047 105.049C115.09 105.038 115.135 105.035 115.179 105.04C115.224 105.045 115.266 105.058 115.305 105.079C115.344 105.1 115.378 105.128 115.406 105.161C115.459 105.231 115.482 105.318 115.47 105.404C115.457 105.49 115.411 105.568 115.339 105.623C114.793 106.02 114.207 106.395 113.637 106.746C113.558 106.792 113.463 106.806 113.373 106.786C113.283 106.766 113.205 106.714 113.156 106.64L113.226 106.539ZM116.49 104.183C116.474 104.127 116.474 104.068 116.491 104.013C116.509 103.957 116.542 103.907 116.588 103.869C117.092 103.441 117.569 102.989 118.029 102.521C118.093 102.459 118.18 102.423 118.272 102.421C118.364 102.419 118.453 102.452 118.52 102.511C118.554 102.54 118.581 102.574 118.6 102.613C118.618 102.652 118.628 102.694 118.629 102.736C118.63 102.779 118.621 102.821 118.604 102.86C118.587 102.9 118.561 102.935 118.529 102.965C118.061 103.445 117.564 103.902 117.06 104.371C116.992 104.428 116.902 104.458 116.811 104.454C116.719 104.45 116.633 104.412 116.571 104.349L116.49 104.183ZM119.29 101.354C119.279 101.306 119.279 101.257 119.29 101.21C119.301 101.162 119.323 101.117 119.355 101.079C119.773 100.58 120.163 100.057 120.54 99.527C120.587 99.4533 120.662 99.3996 120.75 99.3773C120.838 99.3551 120.932 99.3661 121.012 99.408C121.052 99.4288 121.086 99.457 121.115 99.4908C121.143 99.5247 121.163 99.5635 121.175 99.6049C121.187 99.6464 121.189 99.6896 121.183 99.7321C121.177 99.7746 121.161 99.8155 121.138 99.8523C120.754 100.394 120.343 100.922 119.917 101.434C119.861 101.502 119.778 101.547 119.687 101.559C119.595 101.57 119.503 101.547 119.429 101.495C119.342 101.469 119.268 101.414 119.221 101.341L119.29 101.354ZM121.561 98.1307C121.549 98.0913 121.546 98.0502 121.551 98.0097C121.557 97.9693 121.571 97.9303 121.592 97.8949C121.917 97.3366 122.226 96.7617 122.502 96.1849C122.52 96.1463 122.545 96.1115 122.578 96.0824C122.61 96.0533 122.648 96.0304 122.689 96.0151C122.731 95.9998 122.775 95.9923 122.82 95.9932C122.864 95.9941 122.908 96.0032 122.949 96.0201C122.99 96.037 123.027 96.0612 123.058 96.0916C123.089 96.1219 123.113 96.1576 123.13 96.1968C123.146 96.236 123.154 96.2778 123.153 96.3198C123.152 96.3619 123.142 96.4033 123.124 96.4418C122.844 97.0406 122.527 97.6277 122.198 98.2079C122.151 98.2816 122.076 98.3353 121.988 98.3576C121.9 98.3798 121.806 98.3688 121.726 98.3269C121.673 98.3098 121.625 98.2822 121.584 98.246C121.544 98.2098 121.512 98.1659 121.491 98.1172L121.561 98.1307ZM123.238 94.6014C123.223 94.5398 123.224 94.4758 123.24 94.4145C123.464 93.8094 123.664 93.1998 123.82 92.5909C123.83 92.5492 123.849 92.5098 123.876 92.475C123.902 92.4403 123.936 92.4109 123.974 92.3885C124.013 92.3662 124.056 92.3514 124.101 92.3451C124.146 92.3387 124.192 92.3409 124.236 92.3515C124.324 92.3729 124.399 92.4257 124.447 92.4987C124.494 92.5718 124.51 92.6593 124.49 92.7428C124.318 93.3762 124.124 94.0052 123.923 94.6147C123.909 94.6555 123.887 94.6931 123.857 94.7255C123.828 94.7579 123.791 94.7844 123.751 94.8034C123.71 94.8223 123.666 94.8334 123.62 94.8359C123.575 94.8385 123.529 94.8324 123.487 94.8182C123.41 94.8211 123.334 94.7996 123.272 94.7569C123.21 94.7143 123.166 94.6531 123.145 94.5834L123.238 94.6014ZM124.224 90.8429L124.191 90.727C124.296 90.0959 124.365 89.46 124.397 88.8219C124.405 88.7373 124.448 88.659 124.516 88.6032C124.584 88.5475 124.672 88.5186 124.762 88.5227C124.853 88.5281 124.939 88.5668 125 88.6307C125.061 88.6945 125.094 88.7784 125.09 88.8643C125.042 89.5079 124.977 90.1663 124.875 90.8132C124.861 90.8986 124.812 90.9753 124.738 91.0268C124.664 91.0783 124.572 91.1006 124.481 91.0887C124.401 91.0873 124.325 91.0596 124.265 91.0105C124.204 90.9614 124.164 90.8938 124.152 90.8197L124.224 90.8429Z" fill="#999999"/>
</svg>
