<svg width="52" height="26" viewBox="0 0 52 26" fill="none" xmlns="http://www.w3.org/2000/svg">
<path d="M2.44853 0.981403C2.16682 1.03228 1.77034 1.16965 1.45733 1.32227C0.486993 1.79542 0.570463 0.833864 0.570463 11.4008C0.570463 21.9729 0.497427 21.0622 1.43646 21.5201C2.38593 21.9831 1.42603 21.9475 15.2194 21.9932L27.3225 22.0339L27.9798 23.2753C28.3346 23.9571 28.7415 24.6184 28.8667 24.7456C29.2006 25.0662 29.8683 25.4121 30.5257 25.6054C31.5899 25.9158 31.8194 25.926 37.1928 25.926C42.3679 25.926 42.6914 25.9107 43.6826 25.6665C44.246 25.524 45.0807 25.1425 45.4041 24.8677C45.9571 24.4099 46.0615 24.1199 46.0615 23.026V22.0187L47.5013 21.9882C49.3794 21.9424 49.9219 21.861 50.621 21.5201C51.56 21.0622 51.487 21.9678 51.487 11.4263C51.487 0.884739 51.56 1.79033 50.621 1.32736C49.6402 0.849127 52.1339 0.894915 25.987 0.900002C5.2552 0.900002 2.86588 0.910177 2.44853 0.981403ZM49.4629 1.63771C49.6194 1.69367 49.8489 1.8056 49.9637 1.88191C50.1724 2.01419 50.1828 2.09559 50.2141 3.69819L50.2454 5.37201H26.0287H1.82251V3.7745C1.82251 2.11594 1.85381 1.98875 2.27116 1.7649C2.78241 1.49525 1.37386 1.51052 26.1539 1.52069L49.1811 1.53087L49.4629 1.63771ZM50.235 13.329C50.235 18.4014 50.2037 20.7213 50.1202 20.8231C49.9637 21.0215 49.5255 21.2352 49.1498 21.2912C48.9725 21.3166 48.2004 21.3573 47.4492 21.3726L46.0615 21.4082V20.7315C46.0615 19.9328 45.9363 19.7445 45.2268 19.4545C44.632 19.2052 43.9956 19.134 43.2026 19.2358L42.6288 19.3121L42.128 19.0679C41.5019 18.7626 40.855 18.6558 40.1247 18.7372C39.8638 18.7626 39.5717 18.8033 39.4882 18.8237C39.3839 18.844 39.2796 18.8033 39.1543 18.7066C39.0604 18.6252 38.7892 18.493 38.5388 18.4116C38.1736 18.2945 37.9858 18.2691 37.4641 18.2691C37.1093 18.2691 36.7233 18.2895 36.5877 18.3098L36.3581 18.3505V16.1527C36.3581 14.026 36.3477 13.9446 36.139 13.731C35.6799 13.2629 34.5113 12.9882 33.4784 13.1001C32.7272 13.1815 32.1638 13.3952 31.8299 13.7208L31.5586 13.9904V17.1549V20.3194L30.9221 19.9989C29.9935 19.5257 28.9502 19.2815 27.4373 19.19C26.853 19.1544 26.3417 19.2561 26.06 19.4596C25.7575 19.6733 25.7575 19.8463 26.0392 20.1617C26.2791 20.4364 26.9678 21.3369 26.9678 21.3827C26.9678 21.4387 3.17889 21.3471 2.87631 21.2912C2.5007 21.2199 2.13552 21.0469 1.96858 20.8536C1.84338 20.7162 1.82251 19.4494 1.82251 13.3341V5.98253H26.0287H50.235V13.329ZM34.4174 13.736C35.1374 13.8836 35.1061 13.7767 35.1061 16.519C35.1061 19.7038 35.1895 21.1283 35.3878 21.225C35.6173 21.3369 36.1077 21.3115 36.2955 21.1843C36.4311 21.0927 36.4624 20.8943 36.4624 20.0854C36.4624 19.1086 36.4624 19.1035 36.7233 18.9814C36.9946 18.844 37.4745 18.8135 37.8293 18.9101C38.2466 19.017 38.3196 19.2154 38.257 20.1566C38.2153 20.9299 38.2257 21.052 38.3823 21.169C38.5283 21.281 38.6327 21.3013 38.9457 21.2861C39.5091 21.2657 39.5926 21.1487 39.5926 20.294V19.5766L39.916 19.4443C40.3438 19.2663 40.7507 19.2714 41.1785 19.4596L41.5228 19.6072L41.575 20.5636C41.6271 21.515 41.6271 21.5252 41.8775 21.5811C42.1906 21.6575 42.5244 21.6015 42.6914 21.4438C42.7748 21.3675 42.827 21.0927 42.827 20.7112C42.827 20.0243 42.9105 19.9175 43.4948 19.8208C43.9226 19.7547 44.2773 19.8107 44.5903 20.004C44.8199 20.1464 44.8199 20.1566 44.7886 22.156L44.7573 24.1707L44.4755 24.4251C44.1208 24.7558 43.4217 25.0712 42.7644 25.1933C42.2845 25.2849 41.9193 25.29 37.1406 25.29C32.1429 25.29 32.0177 25.29 31.5482 25.1832C30.9013 25.0356 30.2648 24.7456 29.9935 24.4811C29.8788 24.359 29.4093 23.55 28.9502 22.6801C28.2094 21.2708 27.6355 20.3601 27.2182 19.9684C27.1451 19.8921 27.1034 19.8208 27.1347 19.8107C27.239 19.7598 28.2511 19.8717 28.825 19.9989C29.5866 20.1668 30.1709 20.4466 30.943 21.0012L31.5586 21.4438V22.0594C31.5586 22.6038 31.5795 22.6801 31.7673 22.7716C32.0281 22.8988 32.1951 22.8988 32.5394 22.7666L32.8106 22.6648V18.3912C32.8106 13.7818 32.8002 13.9141 33.3532 13.7818C33.8958 13.6496 33.9792 13.6496 34.4174 13.736Z" fill="#FA7436"/>
<path d="M5.37019 2.26336C4.81721 2.31932 4.38942 2.44652 3.98251 2.68055C3.35648 3.03668 3.24171 3.51491 3.7008 3.94736C4.5668 4.76647 7.02915 4.77155 7.89515 3.95245C8.82375 3.08755 7.31086 2.07512 5.37019 2.26336ZM6.49703 2.92984C6.60137 2.92984 6.93525 3.28597 6.93525 3.40299C6.93525 3.8914 5.78754 4.13051 5.03631 3.79982C4.15988 3.41825 5.00501 2.73142 6.15272 2.88914C6.31966 2.90949 6.47617 2.92984 6.49703 2.92984Z" fill="#FA7436"/>
<path d="M11.6301 2.27863C9.86684 2.43635 9.14692 3.56071 10.399 4.21192C11.2545 4.65455 12.8509 4.67998 13.7482 4.2628C14.6768 3.83035 14.7707 3.14353 13.9569 2.68055C13.3413 2.32951 12.5587 2.19214 11.6301 2.27863ZM12.9344 3.03669C13.1952 3.15879 13.2474 3.22493 13.2474 3.41826C13.2474 3.61667 13.1952 3.67264 12.9031 3.79983C12.1518 4.13052 11.0041 3.89141 11.0041 3.40299C11.0041 3.18423 11.3589 2.94002 11.7553 2.88915C12.2353 2.82301 12.5692 2.86371 12.9344 3.03669Z" fill="#FA7436"/>
<path d="M18.0263 2.27388C15.6995 2.48756 15.3761 4.04437 17.5776 4.49717C18.1515 4.61418 19.2261 4.56331 19.7583 4.39033C20.426 4.17156 20.7495 3.89683 20.7912 3.48473C20.8225 3.20491 20.7912 3.09299 20.6034 2.90983C20.1339 2.4316 19.0905 2.17722 18.0263 2.27388ZM19.3305 3.05737C19.6852 3.26088 19.6539 3.60683 19.2574 3.80016C19.007 3.91718 18.861 3.9477 18.4854 3.9477C17.6924 3.9477 17.1707 3.63227 17.3794 3.26596C17.6298 2.83861 18.7253 2.72159 19.3305 3.05737Z" fill="#FA7436"/>
<path d="M27.5938 3.06737C27.1764 3.1386 27.0408 3.41842 27.3642 3.55578C27.5416 3.63719 28.4285 3.64227 38.0066 3.64227H48.4612L48.6281 3.51508C48.8472 3.35228 48.7533 3.16912 48.409 3.09281C48.2108 3.04702 45.5293 3.03176 37.944 3.03685C32.3411 3.03685 27.6772 3.05211 27.5938 3.06737Z" fill="#FA7436"/>
<path d="M12.8197 9.12133C11.9745 9.61991 11.265 10.0371 11.2546 10.0473C11.2337 10.0574 10.9625 9.9557 10.639 9.82851C10.3156 9.70132 9.98169 9.59448 9.90865 9.59448C9.82518 9.59448 9.63737 9.64535 9.48087 9.71149C9.05308 9.88956 9.18872 10.0371 10.1278 10.4034C10.8999 10.7087 11.2233 10.7646 11.6719 10.6832C11.9641 10.6273 15.282 8.64818 15.282 8.52608C15.282 8.32257 15.0942 8.22082 14.7186 8.22082C14.3847 8.22082 14.2595 8.28187 12.8197 9.12133Z" fill="#FA7436"/>
<path d="M7.23739 8.50117C6.747 8.63345 6.7157 8.74538 6.747 10.4294L6.7783 11.9964L7.07045 12.1185L7.36259 12.2406H10.7014H14.0402L14.2906 12.1134C14.541 11.9964 14.5514 11.9658 14.5514 11.335C14.5514 10.7652 14.5306 10.6685 14.3636 10.5973C14.1028 10.4803 13.7585 10.4904 13.5081 10.6125C13.3307 10.699 13.2994 10.7804 13.2994 11.1722V11.6301H10.6388H7.97818L7.99905 10.3429L8.03035 9.06081L9.49107 9.04555C10.8266 9.03537 10.9622 9.0252 11.1396 8.92853C11.3796 8.78099 11.3691 8.69959 11.0561 8.55205C10.8057 8.42995 10.7744 8.42486 9.15719 8.42486C7.93645 8.42995 7.43563 8.44521 7.23739 8.50117Z" fill="#FA7436"/>
<path d="M20.9159 8.66378C20.4046 8.75536 20.2377 9.00465 20.582 9.15219C20.7594 9.23359 21.7923 9.23868 33.259 9.23868C44.4648 9.23868 45.7481 9.2285 45.8942 9.15728C46.0716 9.07587 46.1133 8.89781 45.9777 8.79606C45.9359 8.76553 45.769 8.70957 45.6125 8.68413C45.2995 8.62817 21.2289 8.60781 20.9159 8.66378Z" fill="#FA7436"/>
<path d="M20.603 11.2735C20.3422 11.4007 20.3318 11.5889 20.5822 11.6958C20.7595 11.7772 21.7925 11.7823 33.2487 11.7823C45.1953 11.7823 45.7274 11.7772 45.8839 11.6907C46.1239 11.5635 46.103 11.3956 45.8526 11.2735C45.644 11.1717 45.5083 11.1717 33.2278 11.1717C20.9473 11.1717 20.8117 11.1717 20.603 11.2735Z" fill="#FA7436"/>
<path d="M12.9241 15.5322C12.1312 16.0003 11.4217 16.4174 11.3591 16.4581C11.2547 16.5243 11.1713 16.509 10.7852 16.3564C10.0027 16.046 9.70013 16.0206 9.34538 16.2292C9.09497 16.3767 9.30364 16.5548 10.1279 16.8702C11.0565 17.2315 11.4321 17.2671 11.9329 17.033C12.1103 16.9567 12.9241 16.4938 13.7588 16.0053C15.3343 15.0845 15.4908 14.942 15.1152 14.764C15.0318 14.7182 14.8231 14.6826 14.6666 14.6826C14.4162 14.6826 14.1658 14.8047 12.9241 15.5322Z" fill="#FA7436"/>
<path d="M7.49874 14.9213C7.37353 14.9314 7.16486 14.9976 7.02922 15.0688L6.77881 15.2011V16.8189V18.4368L7.02922 18.5691L7.27963 18.7014H10.6602H14.0407L14.2911 18.5742C14.5415 18.4571 14.5519 18.4266 14.5519 17.7907C14.5519 17.1649 14.5415 17.1242 14.3224 17.053C13.9989 16.941 13.759 16.9512 13.5086 17.0835C13.3312 17.1751 13.2999 17.2616 13.2999 17.6431V18.0908H10.6393H7.97869L7.99955 16.8037L8.03085 15.5216L9.51244 15.5063C10.9732 15.4962 11.0045 15.4911 11.1714 15.3639C11.3905 15.2062 11.2444 15.0077 10.8375 14.9365C10.5871 14.8856 7.95782 14.8755 7.49874 14.9213Z" fill="#FA7436"/>
<path d="M20.5717 15.2318C20.3526 15.3488 20.3422 15.4964 20.5404 15.6287C20.6865 15.7202 20.8743 15.7253 24.7452 15.7406C26.9676 15.7457 28.8978 15.7406 29.023 15.7253C29.5551 15.6643 29.7534 15.3845 29.3882 15.2267C29.2108 15.1504 28.7518 15.1402 24.9643 15.1402C20.9995 15.1402 20.7282 15.1453 20.5717 15.2318Z" fill="#FA7436"/>
<path d="M39.8429 15.2673C39.6447 15.4149 39.7281 15.5726 40.062 15.6794C40.2603 15.7456 40.7298 15.7507 43.0356 15.7405C45.6023 15.7252 45.7797 15.7201 45.9153 15.6286C46.1136 15.4912 46.1031 15.3233 45.8736 15.2266C45.7067 15.1503 45.3415 15.1401 42.8478 15.1401H40.0098L39.8429 15.2673Z" fill="#FA7436"/>
<path d="M20.8118 17.6689C20.3944 17.7401 20.2588 18.0199 20.5822 18.1573C20.7387 18.2285 21.0205 18.2438 22.1264 18.2438C23.6184 18.2438 23.7332 18.2235 23.7332 17.9589C23.7332 17.6842 23.4619 17.6333 22.116 17.6384C21.49 17.6384 20.8952 17.6536 20.8118 17.6689Z" fill="#FA7436"/>
</svg>
