<svg width="20" height="20" viewBox="0 0 20 20" fill="none" xmlns="http://www.w3.org/2000/svg">
<path d="M17.3084 16.275C17.3084 16.575 17.2417 16.8833 17.1 17.1833C16.9584 17.4833 16.775 17.7667 16.5334 18.0333C16.125 18.4833 15.675 18.8083 15.1667 19.0167C14.6667 19.225 14.125 19.3333 13.5417 19.3333C12.6917 19.3333 11.7834 19.1333 10.825 18.725C9.86669 18.3167 8.90835 17.7667 7.95835 17.075C7.00002 16.375 6.09169 15.6 5.22502 14.7417C4.36669 13.875 3.59169 12.9667 2.90002 12.0167C2.21669 11.0667 1.66669 10.1167 1.26669 9.17499C0.866687 8.22499 0.666687 7.31666 0.666687 6.44999C0.666687 5.88332 0.766687 5.34166 0.966687 4.84166C1.16669 4.33332 1.48335 3.86666 1.92502 3.44999C2.45835 2.92499 3.04169 2.66666 3.65835 2.66666C3.89169 2.66666 4.12502 2.71666 4.33335 2.81666C4.55002 2.91666 4.74169 3.06666 4.89169 3.28332L6.82502 6.00832C6.97502 6.21666 7.08335 6.40832 7.15835 6.59166C7.23335 6.76666 7.27502 6.94166 7.27502 7.09999C7.27502 7.29999 7.21669 7.49999 7.10002 7.69166C6.99169 7.88332 6.83335 8.08332 6.63335 8.28332L6.00002 8.94166C5.90835 9.03332 5.86669 9.14166 5.86669 9.27499C5.86669 9.34166 5.87502 9.39999 5.89169 9.46666C5.91669 9.53332 5.94169 9.58332 5.95835 9.63332C6.10835 9.90832 6.36669 10.2667 6.73335 10.7C7.10835 11.1333 7.50835 11.575 7.94169 12.0167C8.39169 12.4583 8.82502 12.8667 9.26669 13.2417C9.70002 13.6083 10.0584 13.8583 10.3417 14.0083C10.3834 14.025 10.4334 14.05 10.4917 14.075C10.5584 14.1 10.625 14.1083 10.7 14.1083C10.8417 14.1083 10.95 14.0583 11.0417 13.9667L11.675 13.3417C11.8834 13.1333 12.0834 12.975 12.275 12.875C12.4667 12.7583 12.6584 12.7 12.8667 12.7C13.025 12.7 13.1917 12.7333 13.375 12.8083C13.5584 12.8833 13.75 12.9917 13.9584 13.1333L16.7167 15.0917C16.9334 15.2417 17.0834 15.4167 17.175 15.625C17.2584 15.8333 17.3084 16.0417 17.3084 16.275Z" stroke="#9A9EA6" stroke-width="1.2" stroke-miterlimit="10"/>
<path d="M14.4167 8.50007C14.4167 8.00007 14.0251 7.2334 13.4417 6.6084C12.9084 6.0334 12.2001 5.5834 11.5001 5.5834" stroke="#9A9EA6" stroke-width="1.2" stroke-linecap="round" stroke-linejoin="round"/>
<path d="M17.3334 8.49999C17.3334 5.27499 14.7251 2.66666 11.5001 2.66666" stroke="#9A9EA6" stroke-width="1.2" stroke-linecap="round" stroke-linejoin="round"/>
</svg>
